<svg preserveAspectRatio="none" width="100%" height="100%" overflow="visible" style="display: block;" viewBox="0 0 22.0149 17.8003" fill="none" xmlns="http://www.w3.org/2000/svg">
<path id="Vector" d="M12 5.22017C12.6392 6.34131 12.9754 7.60961 12.9754 8.90017C12.9754 10.1907 12.6392 11.459 12 12.5802M15.46 3.11017C16.4591 4.87636 16.9841 6.871 16.9841 8.90017C16.9841 10.9293 16.4591 12.924 15.46 14.6902M18.91 1.00017C20.2876 3.4048 21.0132 6.12756 21.0149 8.89884C21.0167 11.6701 20.2945 14.3938 18.92 16.8002M2 2.90017H7C7.55228 2.90017 8 3.34789 8 3.90017V13.9002C8 14.4525 7.55228 14.9002 7 14.9002H2C1.44772 14.9002 1 14.4525 1 13.9002V3.90017C1 3.34789 1.44772 2.90017 2 2.90017Z" stroke="var(--stroke-0, #344054)" stroke-width="2" stroke-linecap="round" stroke-linejoin="round"/>
</svg>
