<svg preserveAspectRatio="none" width="100%" height="100%" overflow="visible" style="display: block;" viewBox="0 0 23.9701 20" fill="none" xmlns="http://www.w3.org/2000/svg">
<path id="Vector" d="M20.9851 10.424V9C20.9851 6.61305 20.0368 4.32387 18.349 2.63604C16.6612 0.948212 14.372 0 11.9851 0C9.59811 0 7.30892 0.948212 5.6211 2.63604C3.93327 4.32387 2.98506 6.61305 2.98506 9V10.424C1.93622 10.8858 1.07786 11.694 0.55368 12.7131C0.0295007 13.7322 -0.128681 14.9004 0.105616 16.0222C0.339912 17.1441 0.952465 18.1513 1.84073 18.8755C2.72899 19.5996 3.83904 19.9966 4.98506 20C5.51549 20 6.0242 19.7893 6.39927 19.4142C6.77434 19.0391 6.98506 18.5304 6.98506 18V12C6.98506 11.4696 6.77434 10.9609 6.39927 10.5858C6.0242 10.2107 5.51549 10 4.98506 10V9C4.98506 7.14348 5.72256 5.36301 7.03531 4.05025C8.34806 2.7375 10.1285 2 11.9851 2C13.8416 2 15.6221 2.7375 16.9348 4.05025C18.2476 5.36301 18.9851 7.14348 18.9851 9V10C18.4546 10 17.9459 10.2107 17.5708 10.5858C17.1958 10.9609 16.9851 11.4696 16.9851 12V18C16.9851 18.5304 17.1958 19.0391 17.5708 19.4142C17.9459 19.7893 18.4546 20 18.9851 20C20.1311 19.9966 21.2411 19.5996 22.1294 18.8755C23.0176 18.1513 23.6302 17.1441 23.8645 16.0222C24.0988 14.9004 23.9406 13.7322 23.4164 12.7131C22.8923 11.694 22.0339 10.8858 20.9851 10.424V10.424ZM4.98506 18C4.18941 18 3.42635 17.6839 2.86374 17.1213C2.30113 16.5587 1.98506 15.7956 1.98506 15C1.98506 14.2044 2.30113 13.4413 2.86374 12.8787C3.42635 12.3161 4.18941 12 4.98506 12V18ZM18.9851 18V12C19.7807 12 20.5438 12.3161 21.1064 12.8787C21.669 13.4413 21.9851 14.2044 21.9851 15C21.9851 15.7956 21.669 16.5587 21.1064 17.1213C20.5438 17.6839 19.7807 18 18.9851 18Z" fill="var(--fill-0, #374957)"/>
</svg>
