<svg preserveAspectRatio="none" width="100%" height="100%" overflow="visible" style="display: block;" viewBox="0 0 35 35" fill="none" xmlns="http://www.w3.org/2000/svg">
<g id="Group 1000004156">
<path id="Vector" d="M21 0H11C9.155 0 7.399 0.366 5.786 1.014C2.453 4.25 0 9.528 0 14C0 20.771 0.936 24.735 3.712 28.607C3.928 28.908 4.069 29.26 4.088 29.629C4.131 30.464 3.959 31.994 2.454 33.371C2.292 33.519 2.395 33.79 2.614 33.799C3.556 33.84 5.457 33.785 7.411 32.922C7.968 32.676 8.602 32.719 9.14 33.005C12.453 34.764 16.333 35 20 35C24.676 35 29.339 33.96 32.417 32.084C34.038 29.799 35 27.014 35 24V14C35 6.268 28.732 0 21 0Z" fill="var(--fill-0, white)"/>
<path id="Vector_2" d="M27.75 22C25.683 22 24 20.317 24 18.25C24 16.183 25.683 14.5 27.75 14.5C29.817 14.5 31.5 16.183 31.5 18.25C31.5 20.317 29.817 22 27.75 22ZM27.75 16C26.51 16 25.5 17.01 25.5 18.25C25.5 19.49 26.51 20.5 27.75 20.5C28.99 20.5 30 19.49 30 18.25C30 17.01 28.99 16 27.75 16Z" fill="var(--fill-0, #101828)"/>
<path id="Vector_3" d="M22.5 22H21.5C21.224 22 21 21.776 21 21.5V13H22.5V22Z" fill="var(--fill-0, #101828)"/>
<path id="Vector_4" d="M18 14.75V15.269C17.371 14.793 16.597 14.5 15.75 14.5C13.683 14.5 12 16.183 12 18.25C12 20.317 13.683 22 15.75 22C16.597 22 17.371 21.707 18 21.231V21.5C18 21.776 18.224 22 18.5 22H19.5V14.75H18ZM15.75 20.5C14.51 20.5 13.5 19.49 13.5 18.25C13.5 17.01 14.51 16 15.75 16C16.99 16 18 17.01 18 18.25C18 19.49 16.99 20.5 15.75 20.5Z" fill="var(--fill-0, #101828)"/>
<path id="Vector_5" d="M12.25 13H4.25V14.5H9.571L4 21H4.026C3.863 21.211 3.75 21.463 3.75 21.75V22H11.25C11.526 22 11.75 21.776 11.75 21.5V20.5H6.429L12 14H11.974C12.137 13.789 12.25 13.537 12.25 13.25V13Z" fill="var(--fill-0, #101828)"/>
</g>
</svg>
