<svg preserveAspectRatio="none" width="100%" height="100%" overflow="visible" style="display: block;" viewBox="0 0 26 26" fill="none" xmlns="http://www.w3.org/2000/svg">
<g id="Filled Icons/Star" clip-path="url(#clip0_52_6333)">
<path id="Star Icon" d="M12.1731 22.184C12.6816 21.8771 13.3182 21.8771 13.8267 22.184L19.0565 25.3405C20.2683 26.0719 21.7631 24.9855 21.4415 23.6072L20.0535 17.6586C19.9185 17.0801 20.1151 16.4746 20.564 16.0857L25.1867 12.0811C26.2565 11.1543 25.6847 9.39706 24.2743 9.27745L18.1914 8.76154C17.6001 8.71139 17.0851 8.33806 16.8535 7.79166L14.473 2.17546C13.9217 0.874654 12.0781 0.874658 11.5268 2.17547L9.14633 7.79166C8.91474 8.33806 8.39974 8.71139 7.80841 8.76154L1.72548 9.27745C0.31517 9.39706 -0.256714 11.1543 0.813077 12.0811L5.43584 16.0857C5.88477 16.4746 6.08133 17.0801 5.94636 17.6586L4.55836 23.6072C4.23675 24.9855 5.73156 26.0719 6.94329 25.3405L12.1731 22.184Z" fill="var(--fill-0, #00C694)"/>
</g>
<defs>
<clipPath id="clip0_52_6333">
<rect width="26" height="26" fill="white"/>
</clipPath>
</defs>
</svg>
