<svg preserveAspectRatio="none" width="100%" height="100%" overflow="visible" style="display: block;" viewBox="0 0 145.118 145.118" fill="none" xmlns="http://www.w3.org/2000/svg">
<g id="Polygon 35" filter="url(#filter0_d_164_6641)">
<path d="M55.5883 11.0294C64.9609 1.65685 80.1569 1.65686 89.5295 11.0294L134.088 55.5883C143.461 64.9609 143.461 80.1569 134.088 89.5294L89.5294 134.088C80.1569 143.461 64.9609 143.461 55.5883 134.088L11.0294 89.5294C1.65685 80.1568 1.65686 64.9609 11.0294 55.5883L55.5883 11.0294Z" fill="var(--fill-0, white)" fill-opacity="0.5" shape-rendering="crispEdges"/>
<path d="M54.1741 9.61553C64.3277 -0.538098 80.79 -0.538094 90.9436 9.61553L135.502 54.1741C145.656 64.3278 145.656 80.79 135.502 90.9437L90.9436 135.502C80.79 145.656 64.3277 145.656 54.1741 135.502L9.61552 90.9437C-0.538121 80.79 -0.538118 64.3278 9.61552 54.1741L54.1741 9.61553Z" stroke="var(--stroke-0, #0AE685)" stroke-opacity="0.4" stroke-width="4" shape-rendering="crispEdges"/>
</g>
<defs>
<filter id="filter0_d_164_6641" x="0" y="0" width="145.118" height="145.118" filterUnits="userSpaceOnUse" color-interpolation-filters="sRGB">
<feFlood flood-opacity="0" result="BackgroundImageFix"/>
<feColorMatrix in="SourceAlpha" type="matrix" values="0 0 0 0 0 0 0 0 0 0 0 0 0 0 0 0 0 0 127 0" result="hardAlpha"/>
<feOffset/>
<feComposite in2="hardAlpha" operator="out"/>
<feColorMatrix type="matrix" values="0 0 0 0 0 0 0 0 0 0 0 0 0 0 0 0 0 0 0.55 0"/>
<feBlend mode="normal" in2="BackgroundImageFix" result="effect1_dropShadow_164_6641"/>
<feBlend mode="normal" in="SourceGraphic" in2="effect1_dropShadow_164_6641" result="shape"/>
</filter>
</defs>
</svg>
