<svg preserveAspectRatio="none" width="100%" height="100%" overflow="visible" style="display: block;" viewBox="0 0 41.6667 46.5" fill="none" xmlns="http://www.w3.org/2000/svg">
<path id="Vector" d="M20.8333 25.6667C27.5068 25.6667 32.9167 20.2568 32.9167 13.5833C32.9167 6.90989 27.5068 1.5 20.8333 1.5C14.1599 1.5 8.75 6.90989 8.75 13.5833C8.75 20.2568 14.1599 25.6667 20.8333 25.6667ZM20.8333 25.6667C25.9609 25.6667 30.8784 27.7036 34.5041 31.3293C38.1298 34.955 40.1667 39.8725 40.1667 45M20.8333 25.6667C15.7058 25.6667 10.7883 27.7036 7.1626 31.3293C3.5369 34.955 1.5 39.8725 1.5 45" stroke="url(#paint0_linear_149_7014)" stroke-width="3" stroke-linecap="round" stroke-linejoin="round"/>
<defs>
<linearGradient id="paint0_linear_149_7014" x1="1.5" y1="23.25" x2="40.1667" y2="23.25" gradientUnits="userSpaceOnUse">
<stop stop-color="#00C694"/>
<stop offset="1" stop-color="#07756D"/>
</linearGradient>
</defs>
</svg>
