<svg preserveAspectRatio="none" width="100%" height="100%" overflow="visible" style="display: block;" viewBox="0 0 392.444 357.856" fill="none" xmlns="http://www.w3.org/2000/svg">
<g id="Group 1597880449">
<g id="Polygon 33" filter="url(#filter0_d_164_6643)">
<path d="M191.692 121.448C195.1 121.15 198.529 121.15 201.937 121.448V121.448C205.346 121.746 208.722 122.342 212.027 123.227V123.227C215.332 124.113 218.553 125.285 221.654 126.731V126.731C224.755 128.177 227.724 129.891 230.527 131.854V131.854C233.329 133.816 235.956 136.02 238.375 138.439V138.439C240.794 140.859 242.998 143.485 244.961 146.288V146.288C246.923 149.091 248.637 152.059 250.083 155.16V155.16C251.529 158.261 252.702 161.483 253.587 164.788V164.788C254.473 168.093 255.068 171.469 255.366 174.877V174.877C255.664 178.286 255.664 181.714 255.366 185.123V185.123C255.068 188.531 254.473 191.907 253.587 195.212V195.212C252.702 198.517 251.529 201.739 250.083 204.84V204.84C248.637 207.941 246.923 210.909 244.961 213.712V213.712C242.998 216.515 240.794 219.141 238.375 221.561V221.561C235.956 223.98 233.329 226.184 230.527 228.146V228.146C227.724 230.109 224.755 231.823 221.654 233.269V233.269C218.553 234.715 215.332 235.887 212.027 236.773V236.773C208.722 237.658 205.346 238.254 201.937 238.552V238.552C198.529 238.85 195.1 238.85 191.692 238.552V238.552C188.283 238.254 184.907 237.658 181.602 236.773V236.773C178.297 235.887 175.076 234.715 171.975 233.269V233.269C168.874 231.823 165.905 230.109 163.102 228.146V228.146C160.299 226.184 157.673 223.98 155.254 221.561V221.561C152.834 219.141 150.631 216.515 148.668 213.712V213.712C146.706 210.909 144.992 207.941 143.546 204.84V204.84C142.1 201.739 140.927 198.517 140.042 195.212V195.212C139.156 191.907 138.561 188.531 138.263 185.123V185.123C137.964 181.714 137.964 178.286 138.263 174.877V174.877C138.561 171.469 139.156 168.093 140.042 164.788V164.788C140.927 161.483 142.1 158.261 143.546 155.16V155.16C144.992 152.059 146.706 149.091 148.668 146.288V146.288C150.631 143.485 152.834 140.859 155.254 138.439V138.439C157.673 136.02 160.299 133.816 163.102 131.854V131.854C165.905 129.891 168.874 128.177 171.975 126.731V126.731C175.076 125.285 178.297 124.113 181.602 123.227V123.227C184.907 122.342 188.283 121.746 191.692 121.448V121.448Z" fill="var(--fill-0, white)" fill-opacity="0.5" shape-rendering="crispEdges"/>
<path d="M191.518 119.456C195.042 119.148 198.587 119.148 202.111 119.456C205.636 119.764 209.127 120.379 212.544 121.295C215.961 122.211 219.293 123.424 222.499 124.919C225.706 126.414 228.776 128.186 231.674 130.216C234.572 132.245 237.287 134.524 239.789 137.025C242.291 139.527 244.569 142.242 246.599 145.141C248.628 148.039 250.4 151.109 251.896 154.315C253.391 157.522 254.604 160.853 255.52 164.271C256.435 167.688 257.05 171.179 257.358 174.703C257.667 178.228 257.667 181.772 257.358 185.297C257.05 188.821 256.435 192.312 255.52 195.729C254.604 199.147 253.391 202.478 251.896 205.685C250.4 208.891 248.628 211.961 246.599 214.859C244.569 217.758 242.291 220.473 239.789 222.975C237.287 225.476 234.572 227.755 231.674 229.784C228.776 231.813 225.706 233.586 222.499 235.081C219.293 236.576 215.961 237.789 212.544 238.705C209.127 239.621 205.636 240.236 202.111 240.544C198.587 240.852 195.042 240.852 191.518 240.544C187.993 240.236 184.502 239.621 181.085 238.705C177.668 237.789 174.336 236.576 171.13 235.081C167.923 233.586 164.853 231.813 161.955 229.784C159.057 227.755 156.342 225.476 153.84 222.975C151.338 220.473 149.06 217.758 147.03 214.859C145.001 211.961 143.229 208.891 141.733 205.685C140.238 202.478 139.025 199.147 138.109 195.729C137.194 192.312 136.579 188.821 136.271 185.297C135.962 181.772 135.962 178.228 136.271 174.703C136.579 171.179 137.194 167.688 138.109 164.271C139.025 160.853 140.238 157.522 141.733 154.315C143.229 151.109 145.001 148.039 147.03 145.141C149.06 142.242 151.338 139.527 153.84 137.025C156.342 134.524 159.057 132.245 161.955 130.216C164.853 128.186 167.923 126.414 171.13 124.919C174.336 123.424 177.668 122.211 181.085 121.295C184.502 120.379 187.993 119.764 191.518 119.456Z" stroke="var(--stroke-0, #0AE685)" stroke-opacity="0.4" stroke-width="4" shape-rendering="crispEdges"/>
</g>
<path id="Polygon 21" opacity="0.3" d="M37.8371 131.737C55.1723 121.728 76.5302 121.728 93.8654 131.737C111.2 141.745 121.879 160.241 121.879 180.258C121.879 200.275 111.201 218.772 93.8654 228.781C76.5302 238.789 55.1723 238.789 37.8371 228.781C20.5018 218.772 9.82242 200.275 9.82242 180.258C9.82249 160.241 20.5019 141.745 37.8371 131.737Z" stroke="url(#paint0_linear_164_6643)" stroke-width="2"/>
<path id="Polygon 22" d="M168.119 130.299C185.876 120.047 207.753 120.047 225.51 130.299C243.266 140.551 254.204 159.497 254.204 180C254.204 200.503 243.266 219.449 225.51 229.701C207.753 239.953 185.876 239.953 168.119 229.701C150.363 219.449 139.425 200.503 139.425 180C139.425 159.497 150.363 140.551 168.119 130.299Z" stroke="url(#paint1_linear_164_6643)" stroke-width="3"/>
<path id="Polygon 26" opacity="0.3" d="M103.023 243.483C120.358 233.475 141.716 233.475 159.051 243.483C176.386 253.492 187.065 271.988 187.065 292.005C187.065 312.022 176.386 330.519 159.051 340.527C141.716 350.536 120.358 350.536 103.023 340.527C85.6876 330.519 75.0082 312.022 75.0082 292.005C75.0083 271.988 85.6877 253.492 103.023 243.483Z" stroke="url(#paint2_linear_164_6643)" stroke-width="2"/>
<path id="Polygon 30" opacity="0.3" d="M103.023 17.3291C120.358 7.32067 141.716 7.32064 159.051 17.3291C176.386 27.3377 187.065 45.8338 187.065 65.8506C187.065 85.8676 176.386 104.365 159.051 114.373C141.716 124.382 120.358 124.381 103.023 114.373C85.6876 104.365 75.0082 85.8677 75.0082 65.8506C75.0083 45.8337 85.6877 27.3376 103.023 17.3291Z" stroke="url(#paint3_linear_164_6643)" stroke-width="2"/>
<path id="Polygon 23" opacity="0.3" d="M298.579 131.737C315.915 121.728 337.272 121.728 354.608 131.737C371.943 141.745 382.621 160.241 382.621 180.258C382.621 200.275 371.943 218.772 354.608 228.781C337.272 238.789 315.914 238.789 298.579 228.781C281.244 218.772 270.565 200.275 270.565 180.258C270.565 160.241 281.244 141.745 298.579 131.737Z" stroke="url(#paint4_linear_164_6643)" stroke-width="2"/>
<path id="Polygon 27" opacity="0.3" d="M233.393 243.483C250.729 233.475 272.087 233.475 289.422 243.483C306.757 253.492 317.435 271.988 317.435 292.005C317.435 312.022 306.757 330.519 289.422 340.527C272.087 350.536 250.729 350.536 233.393 340.527C216.058 330.519 205.379 312.022 205.379 292.005C205.379 271.988 216.058 253.492 233.393 243.483Z" stroke="url(#paint5_linear_164_6643)" stroke-width="2"/>
<path id="Polygon 31" opacity="0.3" d="M233.393 17.3291C250.729 7.32067 272.087 7.32064 289.422 17.3291C306.757 27.3377 317.435 45.8338 317.435 65.8506C317.435 85.8676 306.757 104.365 289.422 114.373C272.087 124.382 250.729 124.381 233.393 114.373C216.058 104.365 205.379 85.8677 205.379 65.8506C205.379 45.8337 216.058 27.3376 233.393 17.3291Z" stroke="url(#paint6_linear_164_6643)" stroke-width="2"/>
</g>
<defs>
<filter id="filter0_d_164_6643" x="134.039" y="117.225" width="125.551" height="125.551" filterUnits="userSpaceOnUse" color-interpolation-filters="sRGB">
<feFlood flood-opacity="0" result="BackgroundImageFix"/>
<feColorMatrix in="SourceAlpha" type="matrix" values="0 0 0 0 0 0 0 0 0 0 0 0 0 0 0 0 0 0 127 0" result="hardAlpha"/>
<feOffset/>
<feComposite in2="hardAlpha" operator="out"/>
<feColorMatrix type="matrix" values="0 0 0 0 0 0 0 0 0 0 0 0 0 0 0 0 0 0 0.55 0"/>
<feBlend mode="normal" in2="BackgroundImageFix" result="effect1_dropShadow_164_6643"/>
<feBlend mode="normal" in="SourceGraphic" in2="effect1_dropShadow_164_6643" result="shape"/>
</filter>
<linearGradient id="paint0_linear_164_6643" x1="121.815" y1="174" x2="43.8146" y2="174" gradientUnits="userSpaceOnUse">
<stop stop-color="#01C27F"/>
<stop offset="1" stop-color="#01C27F" stop-opacity="0"/>
</linearGradient>
<linearGradient id="paint1_linear_164_6643" x1="128.814" y1="180" x2="264.814" y2="180" gradientUnits="userSpaceOnUse">
<stop stop-color="#00C694"/>
<stop offset="1" stop-color="#07756D"/>
</linearGradient>
<linearGradient id="paint2_linear_164_6643" x1="169.815" y1="252" x2="169.815" y2="299" gradientUnits="userSpaceOnUse">
<stop stop-color="#01C27F"/>
<stop offset="1" stop-color="#01C27F" stop-opacity="0"/>
</linearGradient>
<linearGradient id="paint3_linear_164_6643" x1="162.815" y1="113" x2="162.815" y2="59.5" gradientUnits="userSpaceOnUse">
<stop stop-color="#01C27F"/>
<stop offset="1" stop-color="#01C27F" stop-opacity="0"/>
</linearGradient>
<linearGradient id="paint4_linear_164_6643" x1="271.815" y1="180" x2="346.815" y2="180" gradientUnits="userSpaceOnUse">
<stop stop-color="#01C27F"/>
<stop offset="1" stop-color="#01C27F" stop-opacity="0"/>
</linearGradient>
<linearGradient id="paint5_linear_164_6643" x1="300.185" y1="252" x2="300.185" y2="299" gradientUnits="userSpaceOnUse">
<stop stop-color="#01C27F"/>
<stop offset="1" stop-color="#01C27F" stop-opacity="0"/>
</linearGradient>
<linearGradient id="paint6_linear_164_6643" x1="293.185" y1="113" x2="293.185" y2="59.5" gradientUnits="userSpaceOnUse">
<stop stop-color="#01C27F"/>
<stop offset="1" stop-color="#01C27F" stop-opacity="0"/>
</linearGradient>
</defs>
</svg>
