<svg preserveAspectRatio="none" width="100%" height="100%" overflow="visible" style="display: block;" viewBox="0 0 42.9262 42.9263" fill="none" xmlns="http://www.w3.org/2000/svg">
<g id="Group 1321315478">
<ellipse id="Ellipse 2530" cx="21.4631" cy="21.4631" rx="21.4631" ry="21.4631" fill="var(--fill-0, #C6FFD9)"/>
<path id="Union" d="M21.6628 11.2958C22.1773 11.2958 22.5942 11.713 22.5944 12.2274V20.3339H30.7018C31.2164 20.3339 31.6335 20.7509 31.6335 21.2655V21.661C31.6335 22.1756 31.2164 22.5926 30.7018 22.5926H22.5944V30.6981C22.5942 31.2125 22.1773 31.6298 21.6628 31.6298H21.2673C20.7528 31.6298 20.3358 31.2125 20.3356 30.6981V22.5926H12.2321C11.7175 22.5926 11.3005 22.1756 11.3005 21.661V21.2655C11.3005 20.7509 11.7175 20.3339 12.2321 20.3339H20.3356V12.2274C20.3358 11.713 20.7528 11.2958 21.2673 11.2958H21.6628Z" fill="var(--fill-0, #106070)"/>
</g>
</svg>
