<svg preserveAspectRatio="none" width="100%" height="100%" overflow="visible" style="display: block;" viewBox="0 0 50.07 49.38" fill="none" xmlns="http://www.w3.org/2000/svg">
<g id="Isolation_Mode" clip-path="url(#clip0_0_4)">
<path id="Vector" d="M26.11 49.38C12.9 49.38 2.15 38.63 2.15 25.42C2.15 12.21 12.9 1.46 26.11 1.46C39.32 1.46 50.07 12.21 50.07 25.42C50.07 38.63 39.32 49.38 26.11 49.38ZM26.11 3.97C14.28 3.97 4.66 13.59 4.66 25.42C4.66 37.25 14.28 46.87 26.11 46.87C37.94 46.87 47.56 37.25 47.56 25.42C47.56 13.59 37.93 3.97 26.11 3.97Z" fill="var(--fill-0, white)"/>
<path id="Vector_2" d="M26.1 40.06C22.34 40.06 18.77 38.64 16.03 36.04C13.19 33.35 11.58 29.71 11.47 25.8C11.37 21.89 12.79 18.18 15.48 15.34C18.17 12.5 21.81 10.89 25.72 10.78C29.63 10.65 33.34 12.1 36.18 14.79C39.02 17.48 40.63 21.12 40.74 25.03C40.84 28.94 39.42 32.65 36.72 35.49C34.03 38.33 30.39 39.94 26.49 40.05C26.36 40.05 26.23 40.05 26.1 40.05V40.06ZM26.12 13.29C26.01 13.29 25.9 13.29 25.8 13.29C22.56 13.38 19.55 14.72 17.32 17.06C15.09 19.41 13.91 22.48 13.99 25.72C14.08 28.96 15.42 31.97 17.76 34.2C20.11 36.43 23.18 37.6 26.42 37.53C33.1 37.35 38.4 31.78 38.22 25.09C38.13 21.85 36.79 18.84 34.45 16.61C32.18 14.46 29.23 13.28 26.11 13.28L26.12 13.29Z" fill="var(--fill-0, white)"/>
<path id="Vector_3" d="M26.11 33.29C21.87 33.29 18.36 29.89 18.25 25.63C18.14 21.29 21.57 17.67 25.91 17.56C28.01 17.49 30.01 18.27 31.53 19.72C33.05 21.17 33.92 23.12 33.98 25.22C34.09 29.56 30.66 33.18 26.32 33.29C26.25 33.29 26.18 33.29 26.11 33.29ZM26.11 20.06C26.11 20.06 26.01 20.06 25.97 20.06C23.02 20.14 20.68 22.6 20.76 25.55C20.84 28.45 23.22 30.76 26.11 30.76C26.16 30.76 26.2 30.76 26.25 30.76C27.68 30.72 29.01 30.13 29.99 29.09C30.97 28.05 31.5 26.69 31.46 25.26C31.42 23.83 30.83 22.5 29.79 21.52C28.79 20.57 27.48 20.05 26.11 20.05V20.06Z" fill="var(--fill-0, white)"/>
<path id="Vector_4" d="M25.25 23.11L7.81 6.03V5.96L7.87 3.5L4.37 0L4.27 4.31H4.24L0 4.5L3.37 7.87L6.02 7.75L6.3 7.73L23.65 24.71L22.17 26.2L29.36 28.69L26.74 21.63L25.25 23.11Z" fill="var(--fill-0, white)"/>
</g>
<defs>
<clipPath id="clip0_0_4">
<rect width="50.07" height="49.38" fill="white"/>
</clipPath>
</defs>
</svg>
