<svg width="259" height="256" viewBox="0 0 259 256" fill="none" xmlns="http://www.w3.org/2000/svg">
<g filter="url(#filter0_f_171_8196)">
<mask id="path-1-outside-1_171_8196" maskUnits="userSpaceOnUse" x="45.2422" y="45.9668" width="168" height="164" fill="black">
<rect fill="white" x="45.2422" y="45.9668" width="168" height="164"/>
<path fill-rule="evenodd" clip-rule="evenodd" d="M211.639 208.362H168.848V116.988L77.5479 208.264L47.2939 178.002L135.562 89.7578H47.2422V46.9668H211.639V208.362Z"/>
</mask>
<path fill-rule="evenodd" clip-rule="evenodd" d="M211.639 208.362H168.848V116.988L77.5479 208.264L47.2939 178.002L135.562 89.7578H47.2422V46.9668H211.639V208.362Z" fill="url(#paint0_linear_171_8196)"/>
<path d="M211.639 208.362V209.151H212.427V208.362H211.639ZM168.848 208.362H168.059V209.151H168.848V208.362ZM168.848 116.988H169.636V115.084L168.29 116.43L168.848 116.988ZM77.5479 208.264L76.9901 208.821L77.5477 209.379L78.1055 208.821L77.5479 208.264ZM47.2939 178.002L46.7363 177.444L46.1785 178.002L46.7361 178.56L47.2939 178.002ZM135.562 89.7578L136.12 90.3156L137.467 88.9691H135.562V89.7578ZM47.2422 89.7578H46.4534V90.5466H47.2422V89.7578ZM47.2422 46.9668V46.178H46.4534V46.9668H47.2422ZM211.639 46.9668H212.427V46.178H211.639V46.9668ZM211.639 208.362V207.574H168.848V208.362V209.151H211.639V208.362ZM168.848 208.362H169.636V116.988H168.848H168.059V208.362H168.848ZM168.848 116.988L168.29 116.43L76.9902 207.706L77.5479 208.264L78.1055 208.821L169.405 117.546L168.848 116.988ZM77.5479 208.264L78.1057 207.706L47.8517 177.444L47.2939 178.002L46.7361 178.56L76.9901 208.821L77.5479 208.264ZM47.2939 178.002L47.8516 178.56L136.12 90.3156L135.562 89.7578L135.005 89.2L46.7363 177.444L47.2939 178.002ZM135.562 89.7578V88.9691H47.2422V89.7578V90.5466H135.562V89.7578ZM47.2422 89.7578H48.0309V46.9668H47.2422H46.4534V89.7578H47.2422ZM47.2422 46.9668V47.7555H211.639V46.9668V46.178H47.2422V46.9668ZM211.639 46.9668H210.85V208.362H211.639H212.427V46.9668H211.639Z" fill="url(#paint1_linear_171_8196)" mask="url(#path-1-outside-1_171_8196)"/>
</g>
<defs>
<filter id="filter0_f_171_8196" x="0.000423431" y="-6.48499e-05" width="258.606" height="255.557" filterUnits="userSpaceOnUse" color-interpolation-filters="sRGB">
<feFlood flood-opacity="0" result="BackgroundImageFix"/>
<feBlend mode="normal" in="SourceGraphic" in2="BackgroundImageFix" result="shape"/>
<feGaussianBlur stdDeviation="23.0891" result="effect1_foregroundBlur_171_8196"/>
</filter>
<linearGradient id="paint0_linear_171_8196" x1="211.294" y1="55.3623" x2="44.7168" y2="205.503" gradientUnits="userSpaceOnUse">
<stop stop-color="#C4FFA6"/>
<stop offset="0.908546" stop-color="#00AE82"/>
</linearGradient>
<linearGradient id="paint1_linear_171_8196" x1="166.219" y1="176.366" x2="203.14" y2="59.1393" gradientUnits="userSpaceOnUse">
<stop stop-color="#C4FFA6"/>
<stop offset="1" stop-color="#C6FFD9"/>
</linearGradient>
</defs>
</svg>
