<svg preserveAspectRatio="none" width="100%" height="100%" overflow="visible" style="display: block;" viewBox="0 0 91.6585 93.5187" fill="none" xmlns="http://www.w3.org/2000/svg">
<g id="Group 1321315489">
<g id="Frame 4605">
<g id="&#226;&#128;&#156;" filter="url(#filter0_d_149_6976)">
<path d="M4.25937 85V56.5451C4.25937 40.98 7.29943 28.2117 13.3795 18.2403C19.7029 8.26895 29.7959 2.18884 43.6585 0V14.9571C35.3896 15.9299 29.5526 19.0915 26.1478 24.4421C22.7429 29.7926 21.0405 38.3047 21.0405 49.9785L10.0963 48.5193H43.2937V85H4.25937Z" fill="var(--fill-0, #08444E)"/>
</g>
</g>
<path id="&#226;&#128;&#156;_2" d="M52.2594 85V56.5451C52.2594 40.98 55.2994 28.2117 61.3795 18.2403C67.7029 8.26895 77.7959 2.18884 91.6585 0V14.9571C83.3896 15.9299 77.5526 19.0915 74.1478 24.4421C70.7429 29.7926 69.0405 38.3047 69.0405 49.9785L58.0963 48.5193H91.2937V85H52.2594Z" fill="var(--fill-0, #08444E)"/>
</g>
<defs>
<filter id="filter0_d_149_6976" x="0" y="0" width="47.9179" height="93.5187" filterUnits="userSpaceOnUse" color-interpolation-filters="sRGB">
<feFlood flood-opacity="0" result="BackgroundImageFix"/>
<feColorMatrix in="SourceAlpha" type="matrix" values="0 0 0 0 0 0 0 0 0 0 0 0 0 0 0 0 0 0 127 0" result="hardAlpha"/>
<feOffset dy="4.25937"/>
<feGaussianBlur stdDeviation="2.12968"/>
<feComposite in2="hardAlpha" operator="out"/>
<feColorMatrix type="matrix" values="0 0 0 0 0 0 0 0 0 0 0 0 0 0 0 0 0 0 0.25 0"/>
<feBlend mode="normal" in2="BackgroundImageFix" result="effect1_dropShadow_149_6976"/>
<feBlend mode="normal" in="SourceGraphic" in2="effect1_dropShadow_149_6976" result="shape"/>
</filter>
</defs>
</svg>
