<svg preserveAspectRatio="none" width="100%" height="100%" overflow="visible" style="display: block;" viewBox="0 0 102 172" fill="none" xmlns="http://www.w3.org/2000/svg">
<g id="Exclude">
<path d="M75.4373 0.0225772L49.2669 9.96159L49.1893 9.99092V30.6364L25.6769 22.5995L25.6199 22.5801L25.5637 22.601L0.0784105 32.1079L0 32.1372V164.267L9.94609 172H42.1201L52.2037 164.267V145.562L59.0988 150.581L59.1381 150.61H90.9018L90.9425 150.576L101.667 141.578V10.0753L101.882 10.1563L102 9.96138L75.5556 0.0223662L75.4965 0L75.4373 0.0225772Z" fill="var(--fill-0, #D9D9D9)"/>
<path d="M75.4373 0.0225772L49.2669 9.96159L49.1893 9.99092V30.6364L25.6769 22.5995L25.6199 22.5801L25.5637 22.601L0.0784105 32.1079L0 32.1372V164.267L9.94609 172H42.1201L52.2037 164.267V145.562L59.0988 150.581L59.1381 150.61H90.9018L90.9425 150.576L101.667 141.578V10.0753L101.882 10.1563L102 9.96138L75.5556 0.0223662L75.4965 0L75.4373 0.0225772Z" fill="var(--fill-1, black)" fill-opacity="0.2"/>
</g>
</svg>
