<svg preserveAspectRatio="none" width="100%" height="100%" overflow="visible" style="display: block;" viewBox="0 0 51.3984 47.0806" fill="none" xmlns="http://www.w3.org/2000/svg">
<path id="Vector" d="M23.25 28.6639H28.0833C29.3652 28.6639 30.5946 28.1547 31.501 27.2482C32.4074 26.3418 32.9167 25.1124 32.9167 23.8306C32.9167 22.5487 32.4074 21.3193 31.501 20.4129C30.5946 19.5065 29.3652 18.9972 28.0833 18.9972H20.8333C19.3833 18.9972 18.175 19.4806 17.45 20.4472L3.91667 33.4972M13.5833 43.1639L17.45 39.7806C18.175 38.8139 19.3833 38.3306 20.8333 38.3306H30.5C33.1583 38.3306 35.575 37.3639 37.2667 35.4306L48.3833 24.7972C49.3159 23.9159 49.8602 22.7003 49.8964 21.4177C49.9327 20.1351 49.458 18.8906 48.5767 17.9581C47.6954 17.0255 46.4797 16.4812 45.1971 16.445C43.9145 16.4087 42.6701 16.8834 41.7375 17.7647L31.5875 27.1897M1.5 31.0806L16 45.5806M43.7917 15.3722C45.4833 13.6806 47.4167 11.5056 47.4167 8.84724C47.5856 7.37048 47.2509 5.87994 46.4668 4.61719C45.6827 3.35444 44.4951 2.39346 43.0966 1.89C41.6981 1.38653 40.1705 1.37007 38.7615 1.84329C37.3524 2.31651 36.1445 3.25167 35.3333 4.49724C34.4706 3.34831 33.2624 2.50621 31.8858 2.09455C30.5093 1.68289 29.0371 1.72336 27.6853 2.21001C26.3334 2.69667 25.1732 3.60388 24.375 4.79846C23.5767 5.99304 23.1824 7.41207 23.25 8.84724C23.25 11.7472 25.1833 13.6806 26.875 15.6139L35.3333 23.8306L43.7917 15.3722Z" stroke="url(#paint0_linear_149_6989)" stroke-width="3" stroke-linecap="round" stroke-linejoin="round"/>
<defs>
<linearGradient id="paint0_linear_149_6989" x1="1.5" y1="23.5403" x2="49.8984" y2="23.5403" gradientUnits="userSpaceOnUse">
<stop stop-color="#00C694"/>
<stop offset="1" stop-color="#07756D"/>
</linearGradient>
</defs>
</svg>
