<svg preserveAspectRatio="none" width="100%" height="100%" overflow="visible" style="display: block;" viewBox="0 0 392.444 357.856" fill="none" xmlns="http://www.w3.org/2000/svg">
<g id="Group 1597880449">
<g id="Polygon 33" filter="url(#filter0_d_164_6661)">
<path d="M188.222 119.026C193.172 116.168 199.271 116.168 204.222 119.026L245.25 142.714C250.201 145.572 253.25 150.854 253.25 156.57V203.946C253.25 209.662 250.201 214.944 245.25 217.802L204.222 241.49C199.271 244.348 193.172 244.348 188.222 241.49L147.193 217.802C142.243 214.944 139.193 209.662 139.193 203.946V156.57C139.193 150.854 142.243 145.572 147.193 142.714L188.222 119.026Z" fill="var(--fill-0, white)" fill-opacity="0.5" shape-rendering="crispEdges"/>
<path d="M187.222 117.294C192.791 114.079 199.652 114.079 205.222 117.294L246.25 140.982C251.819 144.197 255.25 150.14 255.25 156.571V203.947C255.25 210.377 251.819 216.319 246.25 219.534L205.222 243.222C199.652 246.437 192.791 246.437 187.222 243.222L146.193 219.534C140.624 216.319 137.194 210.377 137.193 203.947V156.571C137.193 150.14 140.624 144.197 146.193 140.982L187.222 117.294Z" stroke="var(--stroke-0, #0AE685)" stroke-opacity="0.4" stroke-width="4" shape-rendering="crispEdges"/>
</g>
<path id="Polygon 21" opacity="0.3" d="M58.3507 119.892C62.9916 117.212 68.7098 117.213 73.3507 119.892L114.379 143.58C119.02 146.26 121.879 151.212 121.879 156.571V203.947C121.879 209.305 119.02 214.257 114.379 216.937L73.3507 240.624C68.7098 243.304 62.9917 243.304 58.3507 240.624L17.3224 216.937C12.6815 214.257 9.82259 209.305 9.82242 203.947V156.571C9.82242 151.212 12.6815 146.26 17.3224 143.58L58.3507 119.892Z" stroke="url(#paint0_linear_164_6661)" stroke-width="2"/>
<path id="Polygon 22" d="M188.972 120.325C193.458 117.735 198.985 117.735 203.472 120.325L244.5 144.013C248.986 146.603 251.75 151.39 251.75 156.571V203.947C251.75 209.127 248.986 213.913 244.5 216.503L203.472 240.192C198.985 242.782 193.458 242.782 188.972 240.192L147.943 216.503C143.457 213.913 140.694 209.127 140.693 203.947V156.571C140.693 151.39 143.457 146.603 147.943 144.013L188.972 120.325Z" stroke="url(#paint1_linear_164_6661)" stroke-width="3"/>
<path id="Polygon 26" opacity="0.3" d="M123.537 231.639C128.177 228.959 133.896 228.959 138.537 231.639L179.565 255.327C184.206 258.007 187.065 262.958 187.065 268.317V315.693C187.065 321.052 184.206 326.004 179.565 328.684L138.537 352.371C133.896 355.05 128.178 355.05 123.537 352.371L82.5082 328.684C77.8674 326.004 75.0084 321.052 75.0082 315.693V268.317C75.0082 262.958 77.8673 258.007 82.5082 255.327L123.537 231.639Z" stroke="url(#paint2_linear_164_6661)" stroke-width="2"/>
<path id="Polygon 30" opacity="0.3" d="M123.537 5.48441C128.177 2.80501 133.896 2.80513 138.537 5.48441L179.565 29.1729C184.206 31.8524 187.065 36.8041 187.065 42.1631V89.5391C187.065 94.8979 184.206 99.8499 179.565 102.529L138.537 126.217C133.896 128.896 128.178 128.896 123.537 126.217L82.5082 102.529C77.8674 99.8499 75.0084 94.8979 75.0082 89.5391V42.1631C75.0082 36.8042 77.8673 31.8524 82.5082 29.1729L123.537 5.48441Z" stroke="url(#paint3_linear_164_6661)" stroke-width="2"/>
<path id="Polygon 23" opacity="0.3" d="M319.093 119.892C323.734 117.212 329.452 117.213 334.093 119.892L375.121 143.58C379.762 146.26 382.621 151.212 382.621 156.571V203.947C382.621 209.305 379.762 214.257 375.121 216.937L334.093 240.624C329.452 243.304 323.734 243.304 319.093 240.624L278.065 216.937C273.424 214.257 270.565 209.305 270.565 203.947V156.571C270.565 151.212 273.424 146.26 278.065 143.58L319.093 119.892Z" stroke="url(#paint4_linear_164_6661)" stroke-width="2"/>
<path id="Polygon 27" opacity="0.3" d="M253.907 231.639C258.548 228.959 264.266 228.959 268.907 231.639L309.935 255.327C314.576 258.007 317.435 262.958 317.435 268.317V315.693C317.435 321.052 314.576 326.004 309.935 328.684L268.907 352.371C264.266 355.05 258.548 355.05 253.907 352.371L212.879 328.684C208.238 326.004 205.379 321.052 205.379 315.693V268.317C205.379 262.958 208.238 258.007 212.879 255.327L253.907 231.639Z" stroke="url(#paint5_linear_164_6661)" stroke-width="2"/>
<path id="Polygon 31" opacity="0.3" d="M253.907 5.48441C258.548 2.80501 264.266 2.80513 268.907 5.48441L309.935 29.1729C314.576 31.8524 317.435 36.8041 317.435 42.1631V89.5391C317.435 94.8979 314.576 99.8499 309.935 102.529L268.907 126.217C264.266 128.896 258.548 128.896 253.907 126.217L212.879 102.529C208.238 99.8499 205.379 94.8979 205.379 89.5391V42.1631C205.379 36.8042 208.238 31.8524 212.879 29.1729L253.907 5.48441Z" stroke="url(#paint6_linear_164_6661)" stroke-width="2"/>
</g>
<defs>
<filter id="filter0_d_164_6661" x="135.193" y="112.883" width="122.057" height="134.751" filterUnits="userSpaceOnUse" color-interpolation-filters="sRGB">
<feFlood flood-opacity="0" result="BackgroundImageFix"/>
<feColorMatrix in="SourceAlpha" type="matrix" values="0 0 0 0 0 0 0 0 0 0 0 0 0 0 0 0 0 0 127 0" result="hardAlpha"/>
<feOffset/>
<feComposite in2="hardAlpha" operator="out"/>
<feColorMatrix type="matrix" values="0 0 0 0 0 0 0 0 0 0 0 0 0 0 0 0 0 0 0.55 0"/>
<feBlend mode="normal" in2="BackgroundImageFix" result="effect1_dropShadow_164_6661"/>
<feBlend mode="normal" in="SourceGraphic" in2="effect1_dropShadow_164_6661" result="shape"/>
</filter>
<linearGradient id="paint0_linear_164_6661" x1="121.815" y1="174" x2="43.8146" y2="174" gradientUnits="userSpaceOnUse">
<stop stop-color="#01C27F"/>
<stop offset="1" stop-color="#01C27F" stop-opacity="0"/>
</linearGradient>
<linearGradient id="paint1_linear_164_6661" x1="130.371" y1="180.258" x2="262.073" y2="180.258" gradientUnits="userSpaceOnUse">
<stop stop-color="#00C694"/>
<stop offset="1" stop-color="#07756D"/>
</linearGradient>
<linearGradient id="paint2_linear_164_6661" x1="169.815" y1="252" x2="169.815" y2="299" gradientUnits="userSpaceOnUse">
<stop stop-color="#01C27F"/>
<stop offset="1" stop-color="#01C27F" stop-opacity="0"/>
</linearGradient>
<linearGradient id="paint3_linear_164_6661" x1="162.815" y1="113" x2="162.815" y2="59.5" gradientUnits="userSpaceOnUse">
<stop stop-color="#01C27F"/>
<stop offset="1" stop-color="#01C27F" stop-opacity="0"/>
</linearGradient>
<linearGradient id="paint4_linear_164_6661" x1="271.815" y1="180" x2="346.815" y2="180" gradientUnits="userSpaceOnUse">
<stop stop-color="#01C27F"/>
<stop offset="1" stop-color="#01C27F" stop-opacity="0"/>
</linearGradient>
<linearGradient id="paint5_linear_164_6661" x1="300.185" y1="252" x2="300.185" y2="299" gradientUnits="userSpaceOnUse">
<stop stop-color="#01C27F"/>
<stop offset="1" stop-color="#01C27F" stop-opacity="0"/>
</linearGradient>
<linearGradient id="paint6_linear_164_6661" x1="293.185" y1="113" x2="293.185" y2="59.5" gradientUnits="userSpaceOnUse">
<stop stop-color="#01C27F"/>
<stop offset="1" stop-color="#01C27F" stop-opacity="0"/>
</linearGradient>
</defs>
</svg>
