<svg preserveAspectRatio="none" width="100%" height="100%" overflow="visible" style="display: block;" viewBox="0 0 522.814 357.856" fill="none" xmlns="http://www.w3.org/2000/svg">
<g id="Group 1597880449">
<g id="Polygon 33" filter="url(#filter0_i_149_7020)">
<path d="M196.222 114.407L253.25 147.333V213.184L196.222 246.109L139.193 213.184V147.333L196.222 114.407Z" fill="var(--fill-0, white)" fill-opacity="0.5"/>
</g>
<path id="Polygon 21" opacity="0.3" d="M121.879 147.909V212.606L65.8507 244.954L9.82242 212.606V147.909L65.8507 115.562L121.879 147.909Z" stroke="url(#paint0_linear_149_7020)" stroke-width="2"/>
<path id="Polygon 22" d="M251.25 148.487V212.029L196.221 243.799L141.193 212.029V148.487L196.221 116.717L251.25 148.487Z" stroke="url(#paint1_linear_149_7020)" stroke-width="4"/>
<path id="Polygon 26" opacity="0.3" d="M187.065 259.656V324.352L131.037 356.701L75.0082 324.352V259.656L131.037 227.309L187.065 259.656Z" stroke="url(#paint2_linear_149_7020)" stroke-width="2"/>
<path id="Polygon 30" opacity="0.3" d="M187.065 33.502V98.1983L131.037 130.547L75.0082 98.1983V33.502L131.037 1.15433L187.065 33.502Z" stroke="url(#paint3_linear_149_7020)" stroke-width="2"/>
<path id="Polygon 23" opacity="0.3" d="M382.621 147.909V212.606L326.593 244.954L270.565 212.606V147.909L326.593 115.562L382.621 147.909Z" stroke="url(#paint4_linear_149_7020)" stroke-width="2"/>
<path id="Polygon 27" opacity="0.3" d="M317.435 259.656V324.352L261.407 356.701L205.379 324.352V259.656L261.407 227.309L317.435 259.656Z" stroke="url(#paint5_linear_149_7020)" stroke-width="2"/>
<path id="Polygon 31" opacity="0.3" d="M317.435 33.502V98.1983L261.407 130.547L205.379 98.1983V33.502L261.407 1.15433L317.435 33.502Z" stroke="url(#paint6_linear_149_7020)" stroke-width="2"/>
<path id="Polygon 24" d="M456.964 114.407L513.992 147.333V213.184L456.964 246.109L399.935 213.184V147.333L456.964 114.407Z" fill="var(--fill-0, #D9D9D9)"/>
</g>
<defs>
<filter id="filter0_i_149_7020" x="139.193" y="114.407" width="114.057" height="131.702" filterUnits="userSpaceOnUse" color-interpolation-filters="sRGB">
<feFlood flood-opacity="0" result="BackgroundImageFix"/>
<feBlend mode="normal" in="SourceGraphic" in2="BackgroundImageFix" result="shape"/>
<feColorMatrix in="SourceAlpha" type="matrix" values="0 0 0 0 0 0 0 0 0 0 0 0 0 0 0 0 0 0 127 0" result="hardAlpha"/>
<feOffset/>
<feGaussianBlur stdDeviation="0.5"/>
<feComposite in2="hardAlpha" operator="arithmetic" k2="-1" k3="1"/>
<feColorMatrix type="matrix" values="0 0 0 0 0 0 0 0 0 0 0 0 0 0 0 0 0 0 0.55 0"/>
<feBlend mode="normal" in2="shape" result="effect1_innerShadow_149_7020"/>
</filter>
<linearGradient id="paint0_linear_149_7020" x1="121.815" y1="174" x2="43.8146" y2="174" gradientUnits="userSpaceOnUse">
<stop stop-color="#01C27F"/>
<stop offset="1" stop-color="#01C27F" stop-opacity="0"/>
</linearGradient>
<linearGradient id="paint1_linear_149_7020" x1="130.371" y1="180.258" x2="262.072" y2="180.258" gradientUnits="userSpaceOnUse">
<stop stop-color="#00C694"/>
<stop offset="1" stop-color="#07756D"/>
</linearGradient>
<linearGradient id="paint2_linear_149_7020" x1="169.815" y1="252" x2="169.815" y2="299" gradientUnits="userSpaceOnUse">
<stop stop-color="#01C27F"/>
<stop offset="1" stop-color="#01C27F" stop-opacity="0"/>
</linearGradient>
<linearGradient id="paint3_linear_149_7020" x1="162.815" y1="113" x2="162.815" y2="59.5" gradientUnits="userSpaceOnUse">
<stop stop-color="#01C27F"/>
<stop offset="1" stop-color="#01C27F" stop-opacity="0"/>
</linearGradient>
<linearGradient id="paint4_linear_149_7020" x1="271.815" y1="180" x2="346.815" y2="180" gradientUnits="userSpaceOnUse">
<stop stop-color="#01C27F"/>
<stop offset="1" stop-color="#01C27F" stop-opacity="0"/>
</linearGradient>
<linearGradient id="paint5_linear_149_7020" x1="300.185" y1="252" x2="300.185" y2="299" gradientUnits="userSpaceOnUse">
<stop stop-color="#01C27F"/>
<stop offset="1" stop-color="#01C27F" stop-opacity="0"/>
</linearGradient>
<linearGradient id="paint6_linear_149_7020" x1="293.185" y1="113" x2="293.185" y2="59.5" gradientUnits="userSpaceOnUse">
<stop stop-color="#01C27F"/>
<stop offset="1" stop-color="#01C27F" stop-opacity="0"/>
</linearGradient>
</defs>
</svg>
