<svg preserveAspectRatio="none" width="100%" height="100%" overflow="visible" style="display: block;" viewBox="0 0 34.4557 32.9412" fill="none" xmlns="http://www.w3.org/2000/svg">
<path id="Vector" d="M8.73926 27.4258H8.62012C6.06102 27.4258 3.93816 26.5731 2.46777 25.1035C0.971829 23.6084 0.119141 21.4861 0.119141 18.9287V8.61523C0.119235 6.23325 0.859517 4.22929 2.16211 2.76855C3.46407 1.30867 5.33511 0.382348 7.61426 0.168945L7.61523 0.169922C7.94533 0.144544 8.27047 0.119147 8.62012 0.119141H25.835C28.394 0.119141 30.5178 0.971702 32.001 2.4541C33.4839 3.93639 34.3368 6.05802 34.3369 8.61523V18.9287C34.3369 19.7196 34.2594 20.4695 34.0898 21.1621L34.0117 21.4551L34.0107 21.459C33.0873 25.1258 30.0453 27.4258 25.835 27.4258H18.9033L18.873 27.4453L11.2168 32.5391L11.2148 32.54C10.156 33.269 8.73926 32.4947 8.73926 31.2188V27.4258Z" stroke="url(#paint0_linear_83_6217)" stroke-width="0.238372"/>
<defs>
<linearGradient id="paint0_linear_83_6217" x1="4.95857" y1="-1.17647" x2="36.5007" y2="18.0866" gradientUnits="userSpaceOnUse">
<stop stop-color="white" stop-opacity="0.1"/>
<stop offset="0.5" stop-color="white"/>
<stop offset="1" stop-color="white" stop-opacity="0.523483"/>
</linearGradient>
</defs>
</svg>
