<svg preserveAspectRatio="none" width="100%" height="100%" overflow="visible" style="display: block;" viewBox="0 0 27.9102 29.7647" fill="none" xmlns="http://www.w3.org/2000/svg">
<g id="pointing" filter="url(#filter0_d_83_6227)">
<path id="Shape" d="M6.79777 20.447C6.3311 19.847 5.74777 18.6304 4.7311 17.1137C4.14777 16.2804 2.71444 14.697 2.2811 13.8804C1.96872 13.3841 1.87808 12.7798 2.0311 12.2137C2.2927 11.1374 3.31371 10.4234 4.41444 10.547C5.26577 10.718 6.04814 11.1353 6.66444 11.747C7.09474 12.1523 7.49055 12.5927 7.84777 13.0637C8.11444 13.397 8.18111 13.5304 8.48111 13.9137C8.78111 14.297 8.9811 14.6804 8.8311 14.1137C8.71444 13.2804 8.51444 11.8804 8.23111 10.6304C8.01444 9.68036 7.96444 9.53036 7.76444 8.8137C7.56444 8.09703 7.44777 7.49703 7.2311 6.68036C7.03305 5.87798 6.87728 5.06575 6.76444 4.24703C6.55436 3.19987 6.7072 2.11239 7.19777 1.1637C7.78009 0.615978 8.63432 0.471416 9.36444 0.797029C10.0988 1.33926 10.6463 2.09645 10.9311 2.9637C11.3679 4.03101 11.6594 5.15214 11.7978 6.29703C12.0644 7.9637 12.5811 10.397 12.5978 10.897C12.5978 10.2804 12.4811 8.98036 12.5978 8.39703C12.7134 7.7889 13.136 7.28422 13.7144 7.0637C14.2108 6.9114 14.7358 6.87716 15.2478 6.9637C15.7645 7.07172 16.2222 7.36894 16.5311 7.79703C16.9172 8.76935 17.1315 9.80136 17.1644 10.847C17.2091 9.93134 17.3658 9.02458 17.6311 8.14703C17.9096 7.75461 18.3163 7.47168 18.7811 7.34703C19.3321 7.24629 19.8968 7.24629 20.4478 7.34703C20.8996 7.49808 21.2948 7.78289 21.5811 8.1637C21.9341 9.04761 22.1477 9.98093 22.2144 10.9304C22.2144 11.1637 22.3311 10.2804 22.6978 9.69703C22.8883 9.13136 23.3662 8.71031 23.9513 8.59249C24.5365 8.47467 25.14 8.67797 25.5347 9.12582C25.9293 9.57367 26.055 10.198 25.8644 10.7637C25.8644 11.847 25.8644 11.797 25.8644 12.5304C25.8644 13.2637 25.8644 13.9137 25.8644 14.5304C25.8037 15.5057 25.67 16.475 25.4644 17.4304C25.1744 18.2756 24.7707 19.0774 24.2644 19.8137C23.4552 20.7136 22.7865 21.7307 22.2811 22.8304C22.1557 23.3767 22.0997 23.9367 22.1144 24.497C22.1128 25.0148 22.18 25.5304 22.3144 26.0304C21.633 26.1024 20.9459 26.1024 20.2644 26.0304C19.6144 25.9304 18.8144 24.6304 18.5978 24.2304C18.4906 24.0156 18.2712 23.8799 18.0311 23.8799C17.7911 23.8799 17.5716 24.0156 17.4644 24.2304C17.0978 24.8637 16.2811 26.0137 15.7144 26.0804C14.5978 26.2137 12.2978 26.0804 10.4811 26.0804C10.4811 26.0804 10.7811 24.4137 10.0978 23.8137C9.41444 23.2137 8.71444 22.5137 8.19777 22.047L6.79777 20.447Z" fill="var(--fill-0, white)"/>
<path id="Shape_2" fill-rule="evenodd" clip-rule="evenodd" d="M6.79777 20.447C6.3311 19.847 5.74777 18.6304 4.7311 17.1137C4.14777 16.2804 2.71444 14.697 2.2811 13.8804C1.96872 13.3841 1.87808 12.7798 2.0311 12.2137C2.2927 11.1374 3.31371 10.4234 4.41444 10.547C5.26577 10.718 6.04814 11.1353 6.66444 11.747C7.09474 12.1523 7.49055 12.5927 7.84777 13.0637C8.11444 13.397 8.18111 13.5304 8.48111 13.9137C8.78111 14.297 8.9811 14.6804 8.8311 14.1137C8.71444 13.2804 8.51444 11.8804 8.23111 10.6304C8.01444 9.68036 7.96444 9.53036 7.76444 8.8137C7.56444 8.09703 7.44777 7.49703 7.2311 6.68036C7.03305 5.87798 6.87728 5.06575 6.76444 4.24703C6.55436 3.19987 6.7072 2.11239 7.19777 1.1637C7.78009 0.615978 8.63432 0.471416 9.36444 0.797029C10.0988 1.33926 10.6463 2.09645 10.9311 2.9637C11.3679 4.03101 11.6594 5.15214 11.7978 6.29703C12.0644 7.9637 12.5811 10.397 12.5978 10.897C12.5978 10.2804 12.4811 8.98036 12.5978 8.39703C12.7134 7.7889 13.136 7.28422 13.7144 7.0637C14.2108 6.9114 14.7358 6.87716 15.2478 6.9637C15.7645 7.07172 16.2222 7.36894 16.5311 7.79703C16.9172 8.76935 17.1315 9.80136 17.1644 10.847C17.2091 9.93134 17.3658 9.02458 17.6311 8.14703C17.9096 7.75461 18.3163 7.47168 18.7811 7.34703C19.3321 7.24629 19.8968 7.24629 20.4478 7.34703C20.8996 7.49808 21.2948 7.78289 21.5811 8.1637C21.9341 9.04761 22.1477 9.98093 22.2144 10.9304C22.2144 11.1637 22.3311 10.2804 22.6978 9.69703C22.8883 9.13136 23.3662 8.71031 23.9513 8.59249C24.5365 8.47467 25.14 8.67797 25.5347 9.12582C25.9293 9.57367 26.055 10.198 25.8644 10.7637C25.8644 11.847 25.8644 11.797 25.8644 12.5304C25.8644 13.2637 25.8644 13.9137 25.8644 14.5304C25.8037 15.5057 25.67 16.475 25.4644 17.4304C25.1744 18.2756 24.7707 19.0774 24.2644 19.8137C23.4552 20.7136 22.7865 21.7307 22.2811 22.8304C22.1557 23.3767 22.0997 23.9367 22.1144 24.497C22.1128 25.0148 22.18 25.5304 22.3144 26.0304C21.633 26.1024 20.9459 26.1024 20.2644 26.0304C19.6144 25.9304 18.8144 24.6304 18.5978 24.2304C18.4906 24.0156 18.2712 23.8799 18.0311 23.8799C17.7911 23.8799 17.5716 24.0156 17.4644 24.2304C17.0978 24.8637 16.2811 26.0137 15.7144 26.0804C14.5978 26.2137 12.2978 26.0804 10.4811 26.0804C10.4811 26.0804 10.7811 24.4137 10.0978 23.8137C9.41444 23.2137 8.71444 22.5137 8.19777 22.047L6.79777 20.447Z" stroke="var(--stroke-0, black)" stroke-width="1.25" stroke-linecap="round" stroke-linejoin="round"/>
<path id="Shape_3" d="M20.9311 21.3568V15.6039C20.9311 15.2595 20.6513 14.9804 20.3061 14.9804C19.9609 14.9804 19.6811 15.2595 19.6811 15.6039V21.3568C19.6811 21.7012 19.9609 21.9804 20.3061 21.9804C20.6513 21.9804 20.9311 21.7012 20.9311 21.3568Z" fill="var(--fill-0, black)"/>
<path id="Shape_4" d="M17.6311 21.3547L17.5978 15.5988C17.5958 15.2553 17.3143 14.9784 16.9692 14.9804C16.624 14.9824 16.3458 15.2624 16.3478 15.606L16.3811 21.3619C16.3831 21.7054 16.6645 21.9823 17.0097 21.9804C17.3549 21.9784 17.6331 21.6983 17.6311 21.3547Z" fill="var(--fill-0, black)"/>
<path id="Shape_5" d="M13.0144 15.612L13.0478 21.356C13.0498 21.7029 13.3312 21.9824 13.6764 21.9804C14.0216 21.9783 14.2998 21.6955 14.2978 21.3487L14.2644 15.6047C14.2624 15.2579 13.981 14.9784 13.6358 14.9804C13.2906 14.9824 13.0124 15.2652 13.0144 15.612Z" fill="var(--fill-0, black)"/>
</g>
<defs>
<filter id="filter0_d_83_6227" x="0" y="0" width="27.9102" height="29.7647" filterUnits="userSpaceOnUse" color-interpolation-filters="sRGB">
<feFlood flood-opacity="0" result="BackgroundImageFix"/>
<feColorMatrix in="SourceAlpha" type="matrix" values="0 0 0 0 0 0 0 0 0 0 0 0 0 0 0 0 0 0 127 0" result="hardAlpha"/>
<feOffset dy="1.66667"/>
<feGaussianBlur stdDeviation="0.666667"/>
<feColorMatrix type="matrix" values="0 0 0 0 0 0 0 0 0 0 0 0 0 0 0 0 0 0 0.5 0"/>
<feBlend mode="normal" in2="BackgroundImageFix" result="effect1_dropShadow_83_6227"/>
<feBlend mode="normal" in="SourceGraphic" in2="effect1_dropShadow_83_6227" result="shape"/>
</filter>
</defs>
</svg>
