<svg preserveAspectRatio="none" width="100%" height="100%" overflow="visible" style="display: block;" viewBox="0 0 48 26.4611" fill="none" xmlns="http://www.w3.org/2000/svg">
<foreignObject x="-8.52071" y="-8.52071" width="65.0414" height="43.5026"><div xmlns="http://www.w3.org/1999/xhtml" style="backdrop-filter:blur(4.26px);clip-path:url(#bgblur_0_83_6234_clip_path);height:100%;width:100%"></div></foreignObject><path id="Vector" data-figma-bg-blur-radius="8.52071" d="M47.8584 20.1172C47.8584 23.5424 45.0814 26.3192 41.6562 26.3193H6.34375C2.91858 26.3192 0.141602 23.5424 0.141602 20.1172V0.194336L23.957 7.80078L24 7.81543L24.043 7.80078L47.8584 0.194336V20.1172Z" fill="var(--fill-0, #9AE1C9)" fill-opacity="0.2" stroke="url(#paint0_linear_83_6234)" stroke-width="0.284024"/>
<defs>
<clipPath id="bgblur_0_83_6234_clip_path" transform="translate(8.52071 8.52071)"><path d="M47.8584 20.1172C47.8584 23.5424 45.0814 26.3192 41.6562 26.3193H6.34375C2.91858 26.3192 0.141602 23.5424 0.141602 20.1172V0.194336L23.957 7.80078L24 7.81543L24.043 7.80078L47.8584 0.194336V20.1172Z"/>
</clipPath><linearGradient id="paint0_linear_83_6234" x1="6.90775" y1="-0.945041" x2="35.3419" y2="29.1701" gradientUnits="userSpaceOnUse">
<stop stop-color="white"/>
<stop offset="0.5" stop-color="#42C1A1"/>
<stop offset="1" stop-color="white"/>
</linearGradient>
</defs>
</svg>
