<svg width="36" height="36" viewBox="0 0 36 36" fill="none" xmlns="http://www.w3.org/2000/svg">
<rect width="36" height="36" rx="8" fill="#101828"/>
<path d="M21.4992 8H18.145V21.6232C18.145 23.2464 16.855 24.5797 15.2496 24.5797C13.6442 24.5797 12.3541 23.2464 12.3541 21.6232C12.3541 20.029 13.6155 18.7246 15.1636 18.6667V15.2464C11.7521 15.3043 9 18.1159 9 21.6232C9 25.1594 11.8094 28 15.2783 28C18.747 28 21.5565 25.1304 21.5565 21.6232V14.6377C22.8179 15.5652 24.3659 16.1159 26 16.1449V12.7246C23.4773 12.6377 21.4992 10.5507 21.4992 8Z" fill="white"/>
</svg>
