<svg width="16" height="16" viewBox="0 0 16 16" fill="none" xmlns="http://www.w3.org/2000/svg">
<path d="M13.3334 6.66683C13.3334 9.9955 9.64075 13.4622 8.40075 14.5328C8.28523 14.6197 8.14461 14.6667 8.00008 14.6667C7.85555 14.6667 7.71493 14.6197 7.59941 14.5328C6.35941 13.4622 2.66675 9.9955 2.66675 6.66683C2.66675 5.25234 3.22865 3.89579 4.22885 2.89559C5.22904 1.8954 6.58559 1.3335 8.00008 1.3335C9.41457 1.3335 10.7711 1.8954 11.7713 2.89559C12.7715 3.89579 13.3334 5.25234 13.3334 6.66683Z" stroke="#667085" stroke-width="1.33333" stroke-linecap="round" stroke-linejoin="round"/>
<path d="M8.00008 8.66683C9.10465 8.66683 10.0001 7.7714 10.0001 6.66683C10.0001 5.56226 9.10465 4.66683 8.00008 4.66683C6.89551 4.66683 6.00008 5.56226 6.00008 6.66683C6.00008 7.7714 6.89551 8.66683 8.00008 8.66683Z" stroke="#667085" stroke-width="1.33333" stroke-linecap="round" stroke-linejoin="round"/>
</svg>
