<svg width="36" height="36" viewBox="0 0 36 36" fill="none" xmlns="http://www.w3.org/2000/svg">
<rect width="36" height="36" rx="8" fill="#101828"/>
<path d="M25 -1H15C13.155 -1 11.399 -0.634 9.786 0.0139999C6.453 3.25 4 8.528 4 13C4 19.771 4.936 23.735 7.712 27.607C7.928 27.908 8.069 28.26 8.088 28.629C8.131 29.464 7.959 30.994 6.454 32.371C6.292 32.519 6.395 32.79 6.614 32.799C7.556 32.84 9.457 32.785 11.411 31.922C11.968 31.676 12.602 31.719 13.14 32.005C16.453 33.764 20.333 34 24 34C28.676 34 33.339 32.96 36.417 31.084C38.038 28.799 39 26.014 39 23V13C39 5.268 32.732 -1 25 -1Z" fill="white"/>
<path d="M31.75 21C29.683 21 28 19.317 28 17.25C28 15.183 29.683 13.5 31.75 13.5C33.817 13.5 35.5 15.183 35.5 17.25C35.5 19.317 33.817 21 31.75 21ZM31.75 15C30.51 15 29.5 16.01 29.5 17.25C29.5 18.49 30.51 19.5 31.75 19.5C32.99 19.5 34 18.49 34 17.25C34 16.01 32.99 15 31.75 15Z" fill="#101828"/>
<path d="M26.5 21H25.5C25.224 21 25 20.776 25 20.5V12H26.5V21Z" fill="#101828"/>
<path d="M22 13.75V14.269C21.371 13.793 20.597 13.5 19.75 13.5C17.683 13.5 16 15.183 16 17.25C16 19.317 17.683 21 19.75 21C20.597 21 21.371 20.707 22 20.231V20.5C22 20.776 22.224 21 22.5 21H23.5V13.75H22ZM19.75 19.5C18.51 19.5 17.5 18.49 17.5 17.25C17.5 16.01 18.51 15 19.75 15C20.99 15 22 16.01 22 17.25C22 18.49 20.99 19.5 19.75 19.5Z" fill="#101828"/>
<path d="M16.25 12H8.25V13.5H13.571L8 20H8.026C7.863 20.211 7.75 20.463 7.75 20.75V21H15.25C15.526 21 15.75 20.776 15.75 20.5V19.5H10.429L16 13H15.974C16.137 12.789 16.25 12.537 16.25 12.25V12Z" fill="#101828"/>
</svg>
