<svg preserveAspectRatio="none" width="100%" height="100%" overflow="visible" style="display: block;" viewBox="0 0 96 30.0917" fill="none" xmlns="http://www.w3.org/2000/svg">
<g id="Frame 1321316970">
<g id="Download on the">
<path d="M0 0.294678V6.28369H2.16235C3.94702 6.28369 4.98047 5.18384 4.98047 3.27051C4.98047 1.38623 3.93872 0.294678 2.16235 0.294678H0ZM0.929688 1.14136H2.05859C3.29956 1.14136 4.03418 1.92993 4.03418 3.28296C4.03418 4.65674 3.31201 5.43701 2.05859 5.43701H0.929688V1.14136Z" fill="var(--fill-0, #101828)"/>
<path d="M8.14556 6.37085C9.46538 6.37085 10.2747 5.48682 10.2747 4.02173C10.2747 2.56494 9.46123 1.67676 8.14556 1.67676C6.82573 1.67676 6.01226 2.56494 6.01226 4.02173C6.01226 5.48682 6.82158 6.37085 8.14556 6.37085ZM8.14556 5.57812C7.36943 5.57812 6.93364 5.00952 6.93364 4.02173C6.93364 3.04224 7.36943 2.46948 8.14556 2.46948C8.91753 2.46948 9.35747 3.04224 9.35747 4.02173C9.35747 5.00537 8.91753 5.57812 8.14556 5.57812Z" fill="var(--fill-0, #101828)"/>
<path d="M17.1668 1.76392H16.2745L15.4693 5.21289H15.3988L14.4691 1.76392H13.6141L12.6844 5.21289H12.618L11.8087 1.76392H10.9039L12.149 6.28369H13.0663L13.9959 2.95508H14.0665L15.0003 6.28369H15.9259L17.1668 1.76392Z" fill="var(--fill-0, #101828)"/>
<path d="M18.1945 6.28369H19.0868V3.63989C19.0868 2.93433 19.506 2.49438 20.1659 2.49438C20.8258 2.49438 21.1413 2.85547 21.1413 3.58179V6.28369H22.0336V3.35767C22.0336 2.28271 21.4774 1.67676 20.4689 1.67676C19.7882 1.67676 19.34 1.97974 19.12 2.48193H19.0536V1.76392H18.1945V6.28369Z" fill="var(--fill-0, #101828)"/>
<path d="M23.4389 6.28369H24.3312V0H23.4389V6.28369Z" fill="var(--fill-0, #101828)"/>
<path d="M27.6873 6.37085C29.0071 6.37085 29.8164 5.48682 29.8164 4.02173C29.8164 2.56494 29.0029 1.67676 27.6873 1.67676C26.3674 1.67676 25.554 2.56494 25.554 4.02173C25.554 5.48682 26.3633 6.37085 27.6873 6.37085ZM27.6873 5.57812C26.9111 5.57812 26.4753 5.00952 26.4753 4.02173C26.4753 3.04224 26.9111 2.46948 27.6873 2.46948C28.4592 2.46948 28.8992 3.04224 28.8992 4.02173C28.8992 5.00537 28.4592 5.57812 27.6873 5.57812Z" fill="var(--fill-0, #101828)"/>
<path d="M32.4751 5.60718C31.9895 5.60718 31.6368 5.37061 31.6368 4.96387C31.6368 4.56543 31.919 4.35376 32.5415 4.31226L33.6456 4.2417V4.61938C33.6456 5.17969 33.1475 5.60718 32.4751 5.60718ZM32.2469 6.3584C32.8404 6.3584 33.3343 6.10107 33.604 5.64868H33.6746V6.28369H34.5337V3.1958C34.5337 2.24121 33.8946 1.67676 32.7615 1.67676C31.7364 1.67676 31.0059 2.1748 30.9146 2.95093H31.7779C31.8775 2.63135 32.222 2.44873 32.72 2.44873C33.3301 2.44873 33.6456 2.71851 33.6456 3.1958V3.58594L32.4212 3.65649C31.3462 3.7229 30.7403 4.19189 30.7403 5.00537C30.7403 5.8313 31.3753 6.3584 32.2469 6.3584Z" fill="var(--fill-0, #101828)"/>
<path d="M37.5619 6.3584C38.1844 6.3584 38.7115 6.06372 38.9813 5.56982H39.0519V6.28369H39.9068V0H39.0145V2.48193H38.9481C38.7032 1.98389 38.1803 1.68921 37.5619 1.68921C36.4205 1.68921 35.6859 2.59399 35.6859 4.02173C35.6859 5.45361 36.4122 6.3584 37.5619 6.3584ZM37.815 2.49023C38.5621 2.49023 39.0311 3.08374 39.0311 4.02588C39.0311 4.97217 38.5663 5.55737 37.815 5.55737C37.0597 5.55737 36.6073 4.98047 36.6073 4.02173C36.6073 3.07129 37.0638 2.49023 37.815 2.49023Z" fill="var(--fill-0, #101828)"/>
<path d="M45.6933 6.37085C47.0131 6.37085 47.8225 5.48682 47.8225 4.02173C47.8225 2.56494 47.009 1.67676 45.6933 1.67676C44.3735 1.67676 43.56 2.56494 43.56 4.02173C43.56 5.48682 44.3693 6.37085 45.6933 6.37085ZM45.6933 5.57812C44.9172 5.57812 44.4814 5.00952 44.4814 4.02173C44.4814 3.04224 44.9172 2.46948 45.6933 2.46948C46.4653 2.46948 46.9052 3.04224 46.9052 4.02173C46.9052 5.00537 46.4653 5.57812 45.6933 5.57812Z" fill="var(--fill-0, #101828)"/>
<path d="M49.0037 6.28369H49.896V3.63989C49.896 2.93433 50.3152 2.49438 50.9751 2.49438C51.635 2.49438 51.9504 2.85547 51.9504 3.58179V6.28369H52.8428V3.35767C52.8428 2.28271 52.2866 1.67676 51.2781 1.67676C50.5974 1.67676 50.1492 1.97974 49.9292 2.48193H49.8628V1.76392H49.0037V6.28369Z" fill="var(--fill-0, #101828)"/>
<path d="M56.9525 0.63916V1.78467H56.2345V2.53589H56.9525V5.08838C56.9525 5.95996 57.3468 6.30859 58.3387 6.30859C58.513 6.30859 58.6791 6.28784 58.8243 6.26294V5.52002C58.6998 5.53247 58.6209 5.54077 58.484 5.54077C58.0399 5.54077 57.8448 5.33325 57.8448 4.86011V2.53589H58.8243V1.78467H57.8448V0.63916H56.9525Z" fill="var(--fill-0, #101828)"/>
<path d="M60.0221 6.28369H60.9145V3.64404C60.9145 2.95923 61.3212 2.49854 62.0517 2.49854C62.6825 2.49854 63.0187 2.86377 63.0187 3.58594V6.28369H63.911V3.36597C63.911 2.29102 63.3175 1.68091 62.3546 1.68091C61.674 1.68091 61.1967 1.98389 60.9767 2.49023H60.9062V0H60.0221V6.28369Z" fill="var(--fill-0, #101828)"/>
<path d="M67.1301 2.43628C67.79 2.43628 68.2216 2.89697 68.2424 3.60669H65.9597C66.0095 2.90112 66.4702 2.43628 67.1301 2.43628ZM68.2382 5.06348C68.0722 5.41626 67.7028 5.61133 67.1633 5.61133C66.4494 5.61133 65.9887 5.10913 65.9597 4.31641V4.2666H69.1513V3.95532C69.1513 2.53589 68.3918 1.67676 67.1342 1.67676C65.8601 1.67676 65.0507 2.59399 65.0507 4.03833C65.0507 5.48267 65.8435 6.37085 67.1384 6.37085C68.1718 6.37085 68.894 5.8728 69.0974 5.06348H68.2382Z" fill="var(--fill-0, #101828)"/>
</g>
<g id="App Store">
<path d="M47.0735 15.7978V18.0888H45.6375V19.5912H47.0735V24.6962C47.0735 26.4394 47.8621 27.1367 49.846 27.1367C50.1946 27.1367 50.5267 27.0951 50.8172 27.0453V25.5595C50.5682 25.5844 50.4104 25.601 50.1365 25.601C49.2483 25.601 48.8582 25.186 48.8582 24.2397V19.5912H50.8172V18.0888H48.8582V15.7978H47.0735Z" fill="var(--fill-0, #101828)"/>
<path d="M55.871 27.2612C58.5107 27.2612 60.1293 25.4931 60.1293 22.5629C60.1293 19.6493 58.5024 17.873 55.871 17.873C53.2314 17.873 51.6044 19.6493 51.6044 22.5629C51.6044 25.4931 53.2231 27.2612 55.871 27.2612ZM55.871 25.6757C54.3188 25.6757 53.4472 24.5385 53.4472 22.5629C53.4472 20.6039 54.3188 19.4584 55.871 19.4584C57.415 19.4584 58.2949 20.6039 58.2949 22.5629C58.2949 24.5302 57.415 25.6757 55.871 25.6757Z" fill="var(--fill-0, #101828)"/>
<path d="M61.5142 27.0868H63.2989V21.7494C63.2989 20.4794 64.2535 19.6244 65.6065 19.6244C65.922 19.6244 66.4532 19.6825 66.6026 19.7324V17.9726C66.4117 17.9228 66.0714 17.8979 65.8057 17.8979C64.627 17.8979 63.6226 18.5453 63.3653 19.4335H63.2325V18.0473H61.5142V27.0868Z" fill="var(--fill-0, #101828)"/>
<path d="M71.0339 19.392C72.3537 19.392 73.217 20.3134 73.2585 21.7328H68.6931C68.7927 20.3217 69.7141 19.392 71.0339 19.392ZM73.2502 24.6464C72.9182 25.352 72.1794 25.7421 71.1003 25.7421C69.6726 25.7421 68.7512 24.7377 68.6931 23.1523V23.0527H75.0764V22.4301C75.0764 19.5912 73.5573 17.873 71.0422 17.873C68.4939 17.873 66.8752 19.7075 66.8752 22.5961C66.8752 25.4848 68.4607 27.2612 71.0505 27.2612C73.1174 27.2612 74.5617 26.2651 74.9685 24.6464H73.2502Z" fill="var(--fill-0, #101828)"/>
<path d="M35.3699 23.7487C35.5076 25.9684 37.3574 27.388 40.1105 27.388C43.0529 27.388 44.894 25.8996 44.894 23.525C44.894 21.658 43.8444 20.6256 41.2978 20.032L39.9298 19.6964C38.3124 19.3179 37.6585 18.8103 37.6585 17.9241C37.6585 16.8056 38.6737 16.0743 40.1965 16.0743C41.6419 16.0743 42.6399 16.7884 42.8206 17.9327H44.6962C44.5843 15.8421 42.7432 14.3708 40.2223 14.3708C37.5122 14.3708 35.7055 15.8421 35.7055 18.0532C35.7055 19.8771 36.7293 20.9611 38.9748 21.486L40.5751 21.8731C42.2183 22.2603 42.941 22.8281 42.941 23.7745C42.941 24.8757 41.8054 25.6759 40.2567 25.6759C38.5963 25.6759 37.4434 24.9274 37.2799 23.7487H35.3699Z" fill="var(--fill-0, #101828)"/>
<path d="M16.8826 17.8979C15.6541 17.8979 14.5916 18.5121 14.0437 19.5414H13.9109V18.0473H12.1927V30.0917H13.9773V25.7172H14.1185C14.5916 26.6718 15.6126 27.2363 16.8992 27.2363C19.1819 27.2363 20.6346 25.435 20.6346 22.5629C20.6346 19.6909 19.1819 17.8979 16.8826 17.8979ZM16.3763 25.6342C14.8821 25.6342 13.9441 24.4555 13.9441 22.5712C13.9441 20.6786 14.8821 19.4999 16.3846 19.4999C17.8953 19.4999 18.8001 20.6537 18.8001 22.5629C18.8001 24.4804 17.8953 25.6342 16.3763 25.6342Z" fill="var(--fill-0, #101828)"/>
<path d="M26.8794 17.8979C25.6509 17.8979 24.5884 18.5121 24.0405 19.5414H23.9077V18.0473H22.1895V30.0917H23.9741V25.7172H24.1153C24.5884 26.6718 25.6094 27.2363 26.896 27.2363C29.1787 27.2363 30.6314 25.435 30.6314 22.5629C30.6314 19.6909 29.1787 17.8979 26.8794 17.8979ZM26.3731 25.6342C24.8789 25.6342 23.9409 24.4555 23.9409 22.5712C23.9409 20.6786 24.8789 19.4999 26.3814 19.4999C27.8921 19.4999 28.7969 20.6537 28.7969 22.5629C28.7969 24.4804 27.8921 25.6342 26.3731 25.6342Z" fill="var(--fill-0, #101828)"/>
<path d="M8.99067 27.0868H11.0383L6.55588 14.672H4.48243L0 27.0868H1.97881L3.12308 23.7917H7.85501L8.99067 27.0868ZM5.42022 16.9261H5.56647L7.36461 22.1742H3.61348L5.42022 16.9261Z" fill="var(--fill-0, #101828)"/>
</g>
</g>
</svg>
