<svg preserveAspectRatio="none" width="100%" height="100%" overflow="visible" style="display: block;" viewBox="0 0 96 31.5164" fill="none" xmlns="http://www.w3.org/2000/svg">
<g id="Frame 1321316971">
<path id="Get it on" d="M3.22656 6.48752C2.33002 6.48752 1.55886 6.17205 0.937109 5.55041C0.315049 4.92835 0 4.14946 0 3.24377C0 2.33808 0.315205 1.56058 0.937109 0.937128C1.55886 0.315376 2.33003 1.83092e-05 3.22656 1.83092e-05C3.68331 1.83092e-05 4.10961 0.0789094 4.51699 0.243182C4.92453 0.407474 5.25795 0.635542 5.52051 0.934003L5.58242 1.00451L4.88301 1.70373L4.81309 1.61779C4.63899 1.40385 4.41752 1.23764 4.13691 1.11682C3.85732 0.996297 3.55109 0.940643 3.22656 0.940643C2.59509 0.940643 2.07113 1.15509 1.63359 1.59103C1.63349 1.59113 1.63329 1.59113 1.63319 1.59124C1.2056 2.03598 0.990616 2.57746 0.990616 3.24377C0.990616 3.9106 1.20586 4.4522 1.63398 4.89709C2.07151 5.33285 2.59542 5.54846 3.22655 5.54846C3.80461 5.54846 4.2827 5.3871 4.65858 5.0676H4.65879C5.0087 4.77027 5.21869 4.36847 5.29297 3.85627H3.12656V2.9344H6.22929L6.24258 3.01877C6.26799 3.18083 6.28593 3.33726 6.28593 3.48752C6.28593 4.3477 6.02369 5.04985 5.50918 5.56643C4.92837 6.18213 4.16454 6.48752 3.22656 6.48752L3.22656 6.48752ZM30.1684 6.48752C29.2705 6.48752 28.5083 6.1719 27.8945 5.55041C27.8945 5.55034 27.8944 5.55031 27.8943 5.55021C27.8943 5.55014 27.8942 5.55011 27.8941 5.55001C27.2795 4.93521 26.9746 4.15615 26.9746 3.24376C26.9746 2.33137 27.2795 1.5523 27.8941 0.937509C27.8942 0.937442 27.8942 0.937411 27.8943 0.937311L27.8945 0.937109C28.5083 0.315509 29.2705 -1.30422e-09 30.1684 -1.30422e-09C31.0645 -1.30422e-09 31.8269 0.315588 32.4406 0.946484C33.0554 1.56118 33.3605 2.33877 33.3605 3.24375C33.3605 4.15614 33.0556 4.9352 32.441 5.55L32.4408 5.5502C31.8267 6.17214 31.0572 6.48751 30.1684 6.48751L30.1684 6.48752ZM7.17383 6.35314V0.134393H7.27383H10.8879V1.07502H8.14727V2.78283H10.6191V3.70471H8.14727V5.41408H10.8879V6.35314H7.17383ZM13.1609 6.35314V1.07502H11.4797V0.134393H15.8156V1.07502H15.7156H14.1344V6.35314H13.1609ZM18.5867 6.35314V0.134393H19.5602V0.234393V6.35314H18.5867ZM22.0105 6.35314V1.07502H20.3293V0.134393H24.6652V1.07502H24.5652H22.984V6.35314H22.0105ZM34.2246 6.35314V0.134393H35.3223L38.1158 4.60666L38.0918 3.75764V0.134393H39.0652V6.35314H38.102L35.174 1.6549L35.198 2.50334V2.50471V6.35314H34.2246ZM30.1684 5.54846C30.7998 5.54846 31.3153 5.33308 31.7355 4.89787L31.7361 4.89707L31.7367 4.89647C32.163 4.47017 32.3715 3.92136 32.3715 3.24374C32.3715 2.56776 32.1629 2.01712 31.7367 1.591L31.7361 1.5904L31.7355 1.5898C31.3154 1.15467 30.8 0.940582 30.1684 0.940582C29.5357 0.940582 29.0203 1.1543 28.5922 1.58941L28.5918 1.58981C28.1735 2.02627 27.9652 2.56795 27.9652 3.24372C27.9652 3.92113 28.1734 4.46109 28.5918 4.89762L28.5922 4.89802C29.0204 5.33321 29.5358 5.54841 30.1684 5.54841V5.54846Z" fill="var(--fill-0, #101828)"/>
<path id="Google Play" d="M65.8946 27.4402H67.7606V14.9386H65.8946V27.4402ZM82.7016 19.4422L80.5626 24.8621H80.4986L78.2786 19.4422H76.2686L79.5986 27.0172L77.6996 31.2312H79.6456L84.7766 19.4422H82.7016ZM72.1186 26.0203C71.5086 26.0203 70.6556 25.7144 70.6556 24.9586C70.6556 23.9937 71.7176 23.6238 72.6336 23.6238C73.4536 23.6238 73.8406 23.8004 74.3386 24.0418C74.1936 25.2 73.1966 26.0203 72.1186 26.0203V26.0203ZM72.3446 19.1687C70.9936 19.1687 69.5946 19.764 69.0156 21.0828L70.6716 21.7742C71.0256 21.0828 71.6846 20.8578 72.3766 20.8578C73.3416 20.8578 74.3226 21.4363 74.3386 22.466V22.5945C74.0006 22.4015 73.2766 22.1121 72.3926 22.1121C70.6066 22.1121 68.7896 23.0929 68.7896 24.9265C68.7896 26.5992 70.2536 27.6769 71.8936 27.6769C73.1476 27.6769 73.8406 27.114 74.2736 26.4543H74.3386V27.4199H76.1406V22.6265C76.1406 20.407 74.4826 19.1687 72.3446 19.1687V19.1687ZM60.8126 20.964H58.1586V16.6789H60.8126C62.2076 16.6789 62.9996 17.8336 62.9996 18.8214C62.9996 19.7902 62.2076 20.964 60.8126 20.964V20.964ZM60.7646 14.9386H56.2934V27.4402H58.1586V22.7039H60.7646C62.8326 22.7039 64.8656 21.207 64.8656 18.8214C64.8656 16.4363 62.8326 14.9386 60.7646 14.9386ZM36.3832 26.0226C35.0941 26.0226 34.0152 24.9429 34.0152 23.4613C34.0152 21.9625 35.0941 20.8675 36.3832 20.8675C37.6559 20.8675 38.6547 21.9625 38.6547 23.4613C38.6547 24.9429 37.6559 26.0226 36.3832 26.0226V26.0226ZM38.5258 20.1422H38.4613C38.0426 19.6429 37.2367 19.1918 36.2223 19.1918C34.0953 19.1918 32.1461 21.0609 32.1461 23.4613C32.1461 25.8453 34.0953 27.698 36.2223 27.698C37.2367 27.698 38.0426 27.2468 38.4613 26.7316H38.5258V27.3433C38.5258 28.9711 37.6559 29.8406 36.2543 29.8406C35.1109 29.8406 34.402 29.0191 34.1117 28.3266L32.4848 29.0031C32.9516 30.1305 34.1918 31.5164 36.2543 31.5164C38.4457 31.5164 40.2984 30.2273 40.2984 27.0855V19.4496H38.5258V20.1422ZM41.5875 27.4402H43.4555V14.9386H41.5875V27.4402ZM46.2106 23.316C46.1625 21.6726 47.484 20.8351 48.434 20.8351C49.1754 20.8351 49.8031 21.2058 50.0133 21.7371L46.2106 23.316ZM52.0102 21.898C51.6559 20.948 50.5766 19.1918 48.3695 19.1918C46.1781 19.1918 44.3578 20.9156 44.3578 23.4449C44.3578 25.8293 46.1625 27.698 48.5785 27.698C50.5277 27.698 51.6559 26.5062 52.1234 25.8132L50.6734 24.8464C50.1899 25.5554 49.5297 26.0226 48.5785 26.0226C47.6285 26.0226 46.9516 25.5875 46.5172 24.7336L52.2035 22.3816L52.0102 21.898ZM6.7024 20.4968V22.3011H11.0199C10.891 23.316 10.5527 24.057 10.0371 24.5726C9.4086 25.2007 8.4258 25.8937 6.7024 25.8937C4.0441 25.8937 1.966 23.7511 1.966 21.0929C1.966 18.4347 4.0441 16.2918 6.7024 16.2918C8.1363 16.2918 9.1832 16.8558 9.9566 17.5808L11.2297 16.3078C10.15 15.2769 8.7164 14.4875 6.7024 14.4875C3.0609 14.4875 0 17.4519 0 21.0929C0 24.7336 3.0609 27.698 6.7024 27.698C8.6676 27.698 10.15 27.0535 11.3098 25.8453C12.502 24.6531 12.8727 22.9777 12.8727 21.6242C12.8727 21.2058 12.8402 20.8191 12.7758 20.4968H6.7024ZM17.7813 26.0226C16.4922 26.0226 15.3805 24.9593 15.3805 23.4449C15.3805 21.9144 16.4922 20.8675 17.7813 20.8675C19.0699 20.8675 20.1816 21.9144 20.1816 23.4449C20.1816 24.9593 19.0699 26.0226 17.7813 26.0226V26.0226ZM17.7813 19.1918C15.4285 19.1918 13.5117 20.98 13.5117 23.4449C13.5117 25.8937 15.4285 27.698 17.7813 27.698C20.1332 27.698 22.0504 25.8937 22.0504 23.4449C22.0504 20.98 20.1332 19.1918 17.7813 19.1918ZM27.0941 26.0226C25.8059 26.0226 24.6938 24.9593 24.6938 23.4449C24.6938 21.9144 25.8059 20.8675 27.0941 20.8675C28.3832 20.8675 29.4945 21.9144 29.4945 23.4449C29.4945 24.9593 28.3832 26.0226 27.0941 26.0226ZM27.0941 19.1918C24.7422 19.1918 22.8254 20.98 22.8254 23.4449C22.8254 25.8937 24.7422 27.698 27.0941 27.698C29.4469 27.698 31.3637 25.8937 31.3637 23.4449C31.3637 20.98 29.4469 19.1918 27.0941 19.1918Z" fill="var(--fill-0, #101828)"/>
</g>
</svg>
