<svg preserveAspectRatio="none" width="100%" height="100%" overflow="visible" style="display: block;" viewBox="0 0 56 56" fill="none" xmlns="http://www.w3.org/2000/svg">
<g id="Frame 1321316969">
<rect x="0.5" y="0.5" width="55" height="55" rx="11.5" fill="var(--fill-0, white)"/>
<rect x="0.5" y="0.5" width="55" height="55" rx="11.5" stroke="var(--stroke-0, #DDE2EC)"/>
<g id="Apple logo">
<path d="M38.0568 29.1447C38.0934 26.3656 39.6221 23.7361 42.0472 22.2805C40.5173 20.1473 37.9548 18.7948 35.2888 18.7134C32.4453 18.422 29.6887 20.3746 28.2397 20.3746C26.7626 20.3746 24.5317 18.7423 22.1293 18.7906C18.9979 18.8894 16.0786 20.6275 14.5551 23.3003C11.2802 28.8359 13.723 36.9714 16.8601 41.446C18.4297 43.6371 20.264 46.0846 22.6642 45.9978C25.013 45.9026 25.8902 44.5355 28.7253 44.5355C31.5342 44.5355 32.3572 45.9978 34.8061 45.9426C37.3264 45.9026 38.9143 43.7418 40.4288 41.5299C41.5565 39.9687 42.4243 38.2432 43 36.4174C40.0382 35.1944 38.0602 32.2843 38.0568 29.1447Z" fill="var(--fill-0, #101828)"/>
<path d="M33.4311 15.7707C34.8053 14.1601 35.4823 12.09 35.3184 10C33.2189 10.2153 31.2796 11.1949 29.8869 12.7437C28.525 14.2569 27.8162 16.2906 27.9502 18.3007C30.0504 18.3218 32.1151 17.3688 33.4311 15.7707Z" fill="var(--fill-0, #101828)"/>
</g>
</g>
</svg>
