<svg preserveAspectRatio="none" width="100%" height="100%" overflow="visible" style="display: block;" viewBox="0 0 12 14.6665" fill="none" xmlns="http://www.w3.org/2000/svg">
<g id="Vector">
<path d="M11.3333 6C11.3333 9.32867 7.64067 12.7953 6.40067 13.866C6.28515 13.9529 6.14453 13.9998 6 13.9998C5.85547 13.9998 5.71485 13.9529 5.59933 13.866C4.35933 12.7953 0.666667 9.32867 0.666667 6C0.666667 4.58551 1.22857 3.22896 2.22876 2.22876C3.22896 1.22857 4.58551 0.666667 6 0.666667C7.41449 0.666667 8.77104 1.22857 9.77124 2.22876C10.7714 3.22896 11.3333 4.58551 11.3333 6Z" stroke="var(--stroke-0, #101828)" stroke-width="1.33333" stroke-linecap="round" stroke-linejoin="round"/>
<path d="M6 8C7.10457 8 8 7.10457 8 6C8 4.89543 7.10457 4 6 4C4.89543 4 4 4.89543 4 6C4 7.10457 4.89543 8 6 8Z" stroke="var(--stroke-0, #101828)" stroke-width="1.33333" stroke-linecap="round" stroke-linejoin="round"/>
</g>
</svg>
