<svg preserveAspectRatio="none" width="100%" height="100%" overflow="visible" style="display: block;" viewBox="0 0 28.6297 31.995" fill="none" xmlns="http://www.w3.org/2000/svg">
<g id="Google Play logo">
<path id="Vector" d="M13.3656 16.7157L0.121502 2.65863C0.122 2.65572 0.122995 2.65328 0.123492 2.65037C0.529654 1.12406 1.92379 9.15527e-05 3.57842 9.15527e-05C4.23984 9.15527e-05 4.86084 0.178914 5.39339 0.492834L5.43569 0.517614L20.3436 9.12004L13.3656 16.7157" fill="var(--fill-0, #EA4335)"/>
<path id="Vector_2" d="M26.7666 19.1089L26.7539 19.1176L20.3178 22.8487L13.0667 16.3964L20.3431 9.12104L26.7452 12.8151C27.8677 13.421 28.6296 14.6043 28.6296 15.9688C28.6296 17.3235 27.8779 18.5009 26.7666 19.1089" fill="var(--fill-0, #FBBC04)"/>
<path id="Vector_3" d="M0.121482 29.3378C0.041867 29.0442 1.90139e-05 28.7367 1.90139e-05 28.4174V3.57797C1.90139e-05 3.25923 0.0413691 2.95068 0.121979 2.65814L13.8219 16.3556L0.121482 29.3378Z" fill="var(--fill-0, #4285F4)"/>
<path id="Vector_4" d="M13.4638 15.997L20.3189 22.8501L5.42785 31.4836C4.88659 31.8078 4.25489 31.9949 3.57891 31.9949C1.92429 31.9949 0.528285 30.869 0.121999 29.3407C0.121502 29.3392 0.121502 29.3382 0.121502 29.3369L13.4638 15.997Z" fill="var(--fill-0, #34A853)"/>
</g>
</svg>
