<svg preserveAspectRatio="none" width="100%" height="100%" overflow="visible" style="display: block;" viewBox="0 0 156 156" fill="none" xmlns="http://www.w3.org/2000/svg">
<g id="Frame 1321316972">
<rect x="0.5" y="0.5" width="155" height="155" rx="23.5" fill="var(--fill-0, #F7F9FC)"/>
<rect x="0.5" y="0.5" width="155" height="155" rx="23.5" stroke="var(--stroke-0, #DDE2EC)"/>
<path id="Vector" d="M24 118.966V105.931H50.069V132H24V118.966ZM46.3448 118.966V109.655H27.7241V128.276H46.3448V118.966ZM31.4483 118.966V113.379H42.6207V124.552H31.4483V118.966ZM57.5172 130.138V128.276H53.7931V120.828H57.5172V109.655H61.2414V105.931H53.7931V102.207H38.8966V98.4828H42.6207V94.7586H35.1724V102.207H31.4483V98.4828H24V94.7586H31.4483V87.3103H27.7241V91.0345H24V83.5862H31.4483V87.3103H35.1724V91.0345H38.8966V87.3103H42.6207V91.0345H50.069V87.3103H46.3448V83.5862H35.1724V79.8621H46.3448V76.1379H35.1724V72.4138H31.4483V76.1379H24V64.9655H27.7241V68.6897H50.069V64.9655H46.3448V61.2414H38.8966V64.9655H35.1724V61.2414H27.7241V53.7931H35.1724V61.2414H38.8966V57.5172H46.3448V53.7931H50.069V57.5172H46.3448V61.2414H50.069V64.9655H53.7931V57.5172H57.5172V53.7931H53.7931V42.6207H61.2414V46.3448H64.9655V50.069H61.2414V53.7931H64.9655V76.1379H57.5172V72.4138H53.7931V76.1379H50.069V79.8621H46.3448V83.5862H50.069V87.3103H53.7931V91.0345H61.2414V87.3103H57.5172V83.5862H53.7931V79.8621H61.2414V87.3103H64.9655V79.8621H68.6897V87.3103H72.4138V76.1379H76.1379V72.4138H79.8621V76.1379H76.1379V79.8621H79.8621V83.5862H91.0345V79.8621H87.3103V76.1379H83.5862V68.6897H79.8621V64.9655H83.5862V61.2414H87.3103V57.5172H83.5862V53.7931H79.8621V61.2414H76.1379V57.5172H72.4138V61.2414H68.6897V57.5172H72.4138V53.7931H68.6897V42.6207H64.9655V38.8966H68.6897V42.6207H72.4138V27.7241H76.1379V35.1724H83.5862V31.4483H79.8621V24H87.3103V27.7241H83.5862V31.4483H91.0345V27.7241H94.7586V24H102.207V35.1724H94.7586V31.4483H91.0345V38.8966H94.7586V50.069H98.4828V46.3448H102.207V64.9655H109.655V61.2414H105.931V53.7931H113.379V64.9655H120.828V61.2414H117.103V53.7931H120.828V61.2414H124.552V57.5172H132V64.9655H128.276V61.2414H124.552V64.9655H120.828V76.1379H124.552V79.8621H120.828V83.5862H113.379V87.3103H109.655V91.0345H102.207V87.3103H98.4828V83.5862H94.7586V91.0345H98.4828V94.7586H109.655V98.4828H117.103V94.7586H113.379V91.0345H117.103V87.3103H120.828V91.0345H124.552V94.7586H128.276V87.3103H124.552V83.5862H132V94.7586H128.276V102.207H132V109.655H128.276V120.828H132V124.552H120.828V132H109.655V128.276H117.103V124.552H109.655V117.103H105.931V124.552H102.207V128.276H105.931V132H98.4828V120.828H94.7586V128.276H91.0345V124.552H87.3103V109.655H91.0345V120.828H94.7586V109.655H98.4828V102.207H94.7586V98.4828H91.0345V94.7586H94.7586V91.0345H91.0345V87.3103H87.3103V102.207H91.0345V105.931H83.5862V113.379H79.8621V120.828H83.5862V124.552H79.8621V128.276H87.3103V132H79.8621V128.276H76.1379V124.552H72.4138V132H57.5172V130.138ZM68.6897 124.552V120.828H72.4138V109.655H64.9655V113.379H68.6897V117.103H61.2414V120.828H57.5172V124.552H61.2414V128.276H68.6897V124.552ZM120.828 120.828V117.103H124.552V109.655H128.276V105.931H124.552V94.7586H120.828V105.931H124.552V109.655H120.828V113.379H117.103V124.552H120.828V120.828ZM102.207 118.966V117.103H98.4828V120.828H102.207V118.966ZM79.8621 111.517V109.655H76.1379V113.379H79.8621V111.517ZM113.379 107.793V102.207H102.207V113.379H113.379V107.793ZM105.931 107.793V105.931H109.655V109.655H105.931V107.793ZM76.1379 104.069V102.207H83.5862V98.4828H76.1379V94.7586H72.4138V98.4828H76.1379V102.207H68.6897V98.4828H64.9655V102.207H61.2414V98.4828H57.5172V94.7586H53.7931V91.0345H50.069V94.7586H46.3448V98.4828H50.069V94.7586H53.7931V98.4828H57.5172V102.207H61.2414V105.931H76.1379V104.069ZM64.9655 92.8966V91.0345H61.2414V94.7586H64.9655V92.8966ZM83.5862 91.0345V87.3103H76.1379V91.0345H79.8621V94.7586H83.5862V91.0345ZM105.931 85.4483V83.5862H102.207V87.3103H105.931V85.4483ZM113.379 81.7241V79.8621H117.103V68.6897H113.379V72.4138H109.655V76.1379H105.931V72.4138H98.4828V68.6897H94.7586V64.9655H98.4828V53.7931H94.7586V50.069H91.0345V46.3448H87.3103V50.069H83.5862V38.8966H87.3103V42.6207H91.0345V38.8966H87.3103V35.1724H83.5862V38.8966H79.8621V50.069H83.5862V53.7931H87.3103V50.069H91.0345V61.2414H87.3103V64.9655H83.5862V68.6897H87.3103V76.1379H91.0345V72.4138H98.4828V76.1379H102.207V79.8621H109.655V83.5862H113.379V81.7241ZM109.655 78V76.1379H113.379V79.8621H109.655V78ZM50.069 74.2759V72.4138H53.7931V68.6897H50.069V72.4138H46.3448V76.1379H50.069V74.2759ZM61.2414 66.8276V64.9655H57.5172V68.6897H61.2414V66.8276ZM61.2414 48.2069V46.3448H57.5172V50.069H61.2414V48.2069ZM76.1379 46.3448V42.6207H72.4138V50.069H76.1379V46.3448ZM98.4828 29.5862V27.7241H94.7586V31.4483H98.4828V29.5862ZM128.276 130.138V128.276H132V132H128.276V130.138ZM128.276 76.1379V72.4138H124.552V68.6897H128.276V72.4138H132V79.8621H128.276V76.1379ZM24 37.0345V24H50.069V50.069H24V37.0345ZM46.3448 37.0345V27.7241H27.7241V46.3448H46.3448V37.0345ZM31.4483 37.0345V31.4483H42.6207V42.6207H31.4483V37.0345ZM105.931 37.0345V24H132V50.069H105.931V37.0345ZM128.276 37.0345V27.7241H109.655V46.3448H128.276V37.0345ZM113.379 37.0345V31.4483H124.552V42.6207H113.379V37.0345ZM53.7931 37.0345V35.1724H57.5172V38.8966H53.7931V37.0345ZM61.2414 33.3103V31.4483H57.5172V24H61.2414V27.7241H64.9655V24H68.6897V27.7241H64.9655V35.1724H61.2414V33.3103Z" fill="var(--fill-0, #101828)"/>
</g>
</svg>
