<svg preserveAspectRatio="none" width="100%" height="100%" overflow="visible" style="display: block;" viewBox="0 0 411 120" fill="none" xmlns="http://www.w3.org/2000/svg">
<path id="Vector 5" opacity="0.2" d="M6.09534 111.204L0 120H411V7.8534L399.245 16.6492L393.149 35.1832L390.972 32.356H383.136L377.476 16.6492L370.945 19.7906L364.85 12.8796L359.625 15.3927L356.577 10.6806L347.87 6.59686L340.468 19.7906L327.842 3.76963L322.618 12.8796L319.57 6.59686L313.475 0L308.685 6.59686L301.719 19.7906L297.365 22.3037L290.399 29.2147L282.127 38.6387L277.773 49.6335L273.855 61.5707L264.712 59.3717L260.793 53.089L258.617 43.0366L254.263 38.6387L248.603 49.6335L245.99 57.801L240.766 49.6335L234.671 46.8063L229.446 53.089L222.044 38.6387V23.5602H216.385C214.933 26.3874 212.031 32.2932 212.031 33.2984C212.031 34.3037 209.418 18.6387 208.112 10.6806L202.017 16.6492L195.922 12.8796L192.439 0L186.779 15.3927L180.683 23.5602L177.636 12.8796L170.234 25.1309H165.01L162.397 38.6387L156.302 46.8063H149.771L142.805 33.2984L138.451 18.534L135.839 46.8063V61.5707H130.614L125.39 49.6335L121.471 53.089L119.73 62.8272H114.07L105.798 68.4817L104.056 76.6492L99.267 77.9058L94.4778 96.4398L90.5593 91.0995L87.0763 74.4503L78.804 68.4817L72.2733 77.9058H67.4841L62.6949 83.8743L54.4227 68.4817L49.6335 53.089L42.6674 57.1728L37.0074 77.9058L32.2182 92.6702L23.0752 99.8953L19.1568 92.6702L13.9322 98.0105L6.09534 111.204Z" fill="url(#paint0_linear_111_6900)"/>
<defs>
<linearGradient id="paint0_linear_111_6900" x1="205.5" y1="0" x2="205.5" y2="120" gradientUnits="userSpaceOnUse">
<stop stop-color="#FE2525" stop-opacity="0.68"/>
<stop offset="1" stop-color="#FE2525" stop-opacity="0"/>
</linearGradient>
</defs>
</svg>
