<svg preserveAspectRatio="none" width="100%" height="100%" overflow="visible" style="display: block;" viewBox="0 0 412.455 122.147" fill="none" xmlns="http://www.w3.org/2000/svg">
<path id="Vector 7" opacity="0.2" d="M7.05015 112.851L0.954813 121.647H411.955V9.4999L400.2 18.2957L394.104 36.8297L391.927 34.0025H384.09L378.43 18.2957L371.9 21.4371L365.804 14.5261L360.58 17.0392L357.532 12.3271L348.825 8.24335L341.423 21.4371L328.797 5.41613L323.572 14.5261L320.525 8.24335L314.429 1.6465L309.64 8.24335L302.674 21.4371L298.32 23.9502L291.354 30.8612L283.082 40.2852L278.728 51.28L274.81 63.2172L265.667 61.0182L261.748 54.7355L259.571 44.6831L255.218 40.2852L249.558 51.28L246.945 59.4475L241.721 51.28L235.625 48.4528L230.401 54.7355L222.999 40.2852V25.2067H217.339C215.888 28.0339 212.986 33.9397 212.986 34.9449C212.986 35.9502 210.373 20.2852 209.067 12.3271L202.972 18.2957L196.876 14.5261L193.393 1.6465L187.733 17.0392L181.638 25.2067L178.59 14.5261L171.189 26.7774H165.964L163.352 40.2852L157.257 48.4528H150.726L143.76 34.9449L139.406 20.1805L136.794 48.4528V63.2172H131.569L126.345 51.28L122.426 54.7355L120.685 64.4737H115.025L106.752 70.1282L105.011 78.2957L100.222 79.5523L95.4326 98.0863L91.5141 92.746L88.0311 76.0968L79.7588 70.1282L73.2281 79.5523H68.4389L63.6497 85.5208L55.3775 70.1282L50.5883 54.7355L43.6222 58.8193L37.9622 79.5523L33.173 94.3167L24.03 101.542L20.1116 94.3167L14.887 99.657L7.05015 112.851Z" fill="url(#paint0_linear_111_7181)" stroke="var(--stroke-0, #00C694)"/>
<defs>
<linearGradient id="paint0_linear_111_7181" x1="206.455" y1="1.6465" x2="206.455" y2="121.646" gradientUnits="userSpaceOnUse">
<stop stop-color="#00C694"/>
<stop offset="1" stop-color="#00C694" stop-opacity="0"/>
</linearGradient>
</defs>
</svg>
