<svg preserveAspectRatio="none" width="100%" height="100%" overflow="visible" style="display: block;" viewBox="0 0 411.711 121.931" fill="none" xmlns="http://www.w3.org/2000/svg">
<path id="Vector 6" d="M0.410966 121.646L6.50631 112.851L14.3432 99.657L19.5677 94.3167L23.4862 101.542L32.6292 94.3167L37.4184 79.5523L43.0783 58.8193L50.0444 54.7355L54.8336 70.1282L63.1059 85.5208L67.8951 79.5523H72.6843L79.215 70.1282L87.4872 76.0968L90.9703 92.746L94.8887 98.0863L99.6779 79.5523L104.467 78.2957L106.209 70.1282L114.481 64.4737H120.141L121.882 54.7355L125.801 51.28L131.025 63.2172H136.25V48.4528L138.862 20.1805L143.216 34.9449L150.182 48.4528H156.713L162.808 40.2852L165.42 26.7774H170.645L178.047 14.5261L181.094 25.2067L187.19 17.0392L192.85 1.6465L196.333 14.5261L202.428 18.2957L208.523 12.3271C209.829 20.2852 212.442 35.9502 212.442 34.9449C212.442 33.9397 215.344 28.0339 216.795 25.2067H222.455V40.2852L229.857 54.7355L235.082 48.4528L241.177 51.28L246.401 59.4475L249.014 51.28L254.674 40.2852L259.027 44.6831L261.204 54.7355L265.123 61.0182L274.266 63.2172L278.184 51.28L282.538 40.2852L290.81 30.8612L297.776 23.9502L302.13 21.4371L309.096 8.24336L313.886 1.6465L319.981 8.24336L323.029 14.5261L328.253 5.41613L340.879 21.4371L348.281 8.24336L356.988 12.3271L360.036 17.0392L365.261 14.5261L371.356 21.4371L377.887 18.2957L383.547 34.0025H391.383L393.56 36.8297L399.656 18.2957L411.411 9.4999" stroke="var(--stroke-0, #FA1F35)"/>
</svg>
