<svg preserveAspectRatio="none" width="100%" height="100%" overflow="visible" style="display: block;" viewBox="0 0 22.0265 21.9999" fill="none" xmlns="http://www.w3.org/2000/svg">
<path id="Union" d="M14.9999 4.09961C17.1363 4.09986 18.8697 5.81835 18.8974 7.94824C18.9678 7.94525 19.0384 7.94234 19.1093 7.94434C19.9051 7.96685 20.6601 8.30516 21.207 8.88379C21.7536 9.4624 22.0478 10.2346 22.0253 11.0303C22.0028 11.8242 21.6659 12.5756 21.0898 13.1221L21.0907 13.123L16.5136 17.5C15.6005 18.5173 14.3285 19 12.9999 19H8.99992C8.61182 19 8.45721 19.1245 8.40032 19.2002C8.35868 19.2557 8.31092 19.3068 8.25871 19.3525L7.46282 20.0488L7.70696 20.293C8.09743 20.6835 8.09743 21.3165 7.70696 21.707C7.31644 22.0975 6.68342 22.0975 6.29289 21.707L0.292893 15.707C-0.0976311 15.3165 -0.0976311 14.6835 0.292893 14.293C0.683421 13.9025 1.31644 13.9025 1.70696 14.293L2.01164 14.5977L6.86223 9.92188C7.40648 9.25618 8.21858 9 8.99992 9H11.2294C11.1449 8.68083 11.0996 8.34573 11.0995 8C11.0995 5.84609 12.846 4.09961 14.9999 4.09961ZM19.0536 9.94336C18.8213 9.93679 18.5944 10.0114 18.412 10.1523L18.33 10.2227L17.7724 10.7402C17.6933 10.8202 17.611 10.8968 17.5253 10.9697L14.1308 14.123C14.0984 14.1531 14.0633 14.1791 14.0282 14.2041C13.4757 14.7127 12.754 15 11.9999 15H9.99992C9.44764 15 8.99992 14.5523 8.99992 14C8.99992 13.4477 9.44764 13 9.99992 13H11.9999C12.2651 13 12.5194 12.8946 12.707 12.707C12.8945 12.5195 12.9999 12.2652 12.9999 12C12.9999 11.7348 12.8945 11.4805 12.707 11.293C12.5194 11.1054 12.2651 11 11.9999 11H8.99992C8.61152 11 8.4571 11.1245 8.40032 11.2002C8.36829 11.2429 8.33229 11.2833 8.29387 11.3203L3.42668 16.0127L6.04485 18.6309L6.87883 17.9014C7.42292 17.2509 8.22665 17 8.99992 17H12.9999C13.8529 17 14.5634 16.6952 15.0478 16.1416L15.1083 16.0771L19.7089 11.6777L19.7128 11.6738C19.9059 11.4913 20.0188 11.2392 20.0263 10.9736C20.0338 10.708 19.9353 10.45 19.7529 10.2568C19.5705 10.064 19.319 9.95098 19.0536 9.94336ZM14.9999 6.09961C13.9506 6.09961 13.0995 6.95066 13.0995 8C13.0997 9.04916 13.9507 9.89941 14.9999 9.89941C15.4563 9.8993 15.8746 9.73792 16.2021 9.46973L16.3593 9.32324C16.6924 8.98108 16.8992 8.5153 16.8993 8C16.8993 6.95081 16.0491 6.09986 14.9999 6.09961ZM4.99992 0C7.20903 4.07808e-05 8.99992 1.79089 8.99992 4C8.99992 6.20911 7.20903 7.99996 4.99992 8C2.79079 8 0.999924 6.20914 0.999924 4C0.999924 1.79086 2.79079 0 4.99992 0ZM4.99992 2C3.89535 2 2.99992 2.89543 2.99992 4C2.99992 5.10457 3.89535 6 4.99992 6C6.10446 5.99996 6.99992 5.10454 6.99992 4C6.99992 2.89546 6.10446 2.00004 4.99992 2Z" fill="var(--fill-0, #667085)"/>
</svg>
