<svg preserveAspectRatio="none" width="100%" height="100%" overflow="visible" style="display: block;" viewBox="0 0 26 26" fill="none" xmlns="http://www.w3.org/2000/svg">
<g id="Frame">
<path id="Vector" d="M22.75 17.3333V19.5C22.75 20.6493 22.2935 21.7515 21.4808 22.5641C20.6681 23.3768 19.5659 23.8333 18.4167 23.8333H13" stroke="var(--stroke-0, white)" stroke-width="1.5" stroke-linecap="round" stroke-linejoin="round"/>
<rect id="Rectangle 23992" x="3.25" y="11.9167" width="5.41667" height="7.58333" rx="1" fill="var(--fill-0, white)"/>
<rect id="Rectangle 23993" x="17.3333" y="11.9167" width="5.41667" height="7.58333" rx="1" fill="var(--fill-0, white)"/>
<path id="Vector_2" d="M3.25 11.9167H6.5C7.07464 11.9167 7.62574 12.1449 8.03206 12.5513C8.43839 12.9576 8.66667 13.5087 8.66667 14.0833V17.3333C8.66667 17.908 8.43839 18.4591 8.03206 18.8654C7.62574 19.2717 7.07464 19.5 6.5 19.5H5.41667C4.84203 19.5 4.29093 19.2717 3.8846 18.8654C3.47827 18.4591 3.25 17.908 3.25 17.3333V11.9167ZM3.25 11.9167C3.25 10.6363 3.50219 9.36843 3.99217 8.1855C4.48216 7.00258 5.20034 5.92775 6.10571 5.02238C7.01108 4.117 8.08591 3.39882 9.26884 2.90884C10.4518 2.41886 11.7196 2.16667 13 2.16667C14.2804 2.16667 15.5482 2.41886 16.7312 2.90884C17.9141 3.39882 18.9889 4.117 19.8943 5.02238C20.7997 5.92775 21.5178 7.00258 22.0078 8.1855C22.4978 9.36843 22.75 10.6363 22.75 11.9167M22.75 11.9167V17.3333C22.75 17.908 22.5217 18.4591 22.1154 18.8654C21.7091 19.2717 21.158 19.5 20.5833 19.5H19.5C18.9254 19.5 18.3743 19.2717 17.9679 18.8654C17.5616 18.4591 17.3333 17.908 17.3333 17.3333V14.0833C17.3333 13.5087 17.5616 12.9576 17.9679 12.5513C18.3743 12.1449 18.9254 11.9167 19.5 11.9167H22.75Z" stroke="var(--stroke-0, white)" stroke-width="1.5" stroke-linecap="round" stroke-linejoin="round"/>
</g>
</svg>
