<svg preserveAspectRatio="none" width="100%" height="100%" overflow="visible" style="display: block;" viewBox="0 0 18 22" fill="none" xmlns="http://www.w3.org/2000/svg">
<path id="Vector" d="M7 21V14.43M9 10H9.01M9 6H9.01M11 14.43V21M12 15C11.1345 14.3509 10.0819 14 9 14C7.91815 14 6.86548 14.3509 6 15M13 10H13.01M13 6H13.01M5 10H5.01M5 6H5.01M3 1H15C16.1046 1 17 1.89543 17 3V19C17 20.1046 16.1046 21 15 21H3C1.89543 21 1 20.1046 1 19V3C1 1.89543 1.89543 1 3 1Z" stroke="var(--stroke-0, #344054)" stroke-width="2" stroke-linecap="round" stroke-linejoin="round"/>
</svg>
