<svg preserveAspectRatio="none" width="100%" height="100%" overflow="visible" style="display: block;" viewBox="0 0 23.3348 14.0008" fill="none" xmlns="http://www.w3.org/2000/svg">
<g id="Group 1321315488">
<g id="Vector">
<mask id="path-1-inside-1_87_6103" fill="white">
<path d="M12.728 8.19053L21.9611 12.2067C22.0942 12.2645 22.2488 12.2977 22.4085 12.3026C22.5682 12.3076 22.727 12.2843 22.8679 12.235C23.0089 12.1858 23.1267 12.1125 23.2089 12.023C23.2911 11.9336 23.3346 11.8312 23.3346 11.7269V2.27353C23.3347 2.17205 23.2937 2.07237 23.2158 1.98454C23.1379 1.89671 23.0259 1.82384 22.891 1.77329C22.7562 1.72274 22.6033 1.69631 22.4477 1.69665C22.2922 1.697 22.1396 1.72411 22.0053 1.77525L12.728 5.307"/>
</mask>
<path d="M21.9611 12.2067L21.5622 13.1237L21.5628 13.124L21.9611 12.2067ZM23.3346 11.7269L24.3346 11.7277V11.7269H23.3346ZM23.3346 2.27353L22.3346 2.27307V2.27353H23.3346ZM22.0053 1.77525L22.361 2.70982L22.3611 2.70981L22.0053 1.77525ZM12.728 8.19053L12.3291 9.10754L21.5622 13.1237L21.9611 12.2067L22.3599 11.2897L13.1269 7.27353L12.728 8.19053ZM21.9611 12.2067L21.5628 13.124C21.8232 13.237 22.104 13.2936 22.3773 13.3022L22.4085 12.3026L22.4397 11.3031C22.3937 11.3017 22.3652 11.292 22.3593 11.2894L21.9611 12.2067ZM22.4085 12.3026L22.3773 13.3022C22.6511 13.3107 22.933 13.2716 23.1977 13.1791L22.8679 12.235L22.5382 11.291C22.521 11.2969 22.4854 11.3046 22.4397 11.3031L22.4085 12.3026ZM22.8679 12.235L23.1977 13.1791C23.4591 13.0878 23.729 12.9351 23.9454 12.6995L23.2089 12.023L22.4724 11.3466C22.4999 11.3167 22.5224 11.3011 22.5325 11.2949C22.5429 11.2884 22.5455 11.2884 22.5382 11.291L22.8679 12.235ZM23.2089 12.023L23.9454 12.6995C24.1672 12.458 24.3343 12.123 24.3346 11.7277L23.3346 11.7269L22.3346 11.7261C22.3348 11.5395 22.415 11.4091 22.4724 11.3466L23.2089 12.023ZM23.3346 11.7269H24.3346V2.27353H23.3346H22.3346V11.7269H23.3346ZM23.3346 2.27353L24.3346 2.27398C24.3348 1.8899 24.1771 1.56141 23.964 1.32105L23.2158 1.98454L22.4676 2.64802C22.4102 2.58333 22.3346 2.45421 22.3346 2.27307L23.3346 2.27353ZM23.2158 1.98454L23.964 1.32105C23.7561 1.08657 23.4954 0.931866 23.242 0.836906L22.891 1.77329L22.5401 2.70967C22.5455 2.71171 22.5412 2.71079 22.5295 2.70321C22.5181 2.69578 22.495 2.67892 22.4676 2.64802L23.2158 1.98454ZM22.891 1.77329L23.242 0.836906C22.9855 0.740762 22.712 0.696066 22.4455 0.696656L22.4477 1.69665L22.45 2.69665C22.4946 2.69655 22.5269 2.70473 22.5401 2.70967L22.891 1.77329ZM22.4477 1.69665L22.4455 0.696656C22.1791 0.697246 21.9057 0.743148 21.6494 0.840698L22.0053 1.77525L22.3611 2.70981C22.3735 2.70507 22.4053 2.69675 22.45 2.69665L22.4477 1.69665ZM22.0053 1.77525L21.6495 0.840683L12.3722 4.37243L12.728 5.307L13.0838 6.24157L22.361 2.70982L22.0053 1.77525Z" fill="var(--stroke-0, white)" mask="url(#path-1-inside-1_87_6103)"/>
</g>
<path id="Vector_2" d="M14.0008 0H2.33346C1.04473 0 0 1.04473 0 2.33346V11.6673C0 12.9561 1.04473 14.0008 2.33346 14.0008H14.0008C15.2895 14.0008 16.3342 12.9561 16.3342 11.6673V2.33346C16.3342 1.04473 15.2895 0 14.0008 0Z" fill="var(--fill-0, white)"/>
</g>
</svg>
