<svg preserveAspectRatio="none" width="100%" height="100%" overflow="visible" style="display: block;" viewBox="0 0 19.7544 20.6544" fill="none" xmlns="http://www.w3.org/2000/svg">
<g id="Group 1321315487">
<path id="Vector" d="M18.9688 0.724609L18.1602 1.51597C13.6777 5.88308 7.66598 8.97528 0.96875 10.3675" stroke="var(--stroke-0, white)" stroke-linecap="round"/>
<path id="Vector_2" d="M14.8594 0.5H19.2544V4.87998" stroke="var(--stroke-0, white)" stroke-linecap="round" stroke-linejoin="round"/>
<path id="Vector_3" d="M3.68286 13.583H2C0.89543 13.583 0 14.4784 0 15.583V18.6544C0 19.759 0.89543 20.6544 2 20.6544H3.68286C4.78743 20.6544 5.68286 19.759 5.68286 18.6544V15.583C5.68286 14.4784 4.78743 13.583 3.68286 13.583Z" fill="var(--fill-0, white)"/>
<path id="Vector_4" d="M10.6555 11.6533H8.97266C7.86809 11.6533 6.97266 12.5488 6.97266 13.6533V18.6533C6.97266 19.7579 7.86809 20.6533 8.97266 20.6533H10.6555C11.7601 20.6533 12.6555 19.7579 12.6555 18.6533V13.6533C12.6555 12.5488 11.7601 11.6533 10.6555 11.6533Z" fill="var(--fill-0, white)"/>
<path id="Vector_5" d="M17.6204 7.79688H15.9375C14.8329 7.79688 13.9375 8.6923 13.9375 9.79687V18.654C13.9375 19.7585 14.8329 20.654 15.9375 20.654H17.6204C18.7249 20.654 19.6204 19.7585 19.6204 18.654V9.79687C19.6204 8.6923 18.7249 7.79688 17.6204 7.79688Z" fill="var(--fill-0, white)"/>
</g>
</svg>
