<svg width="22" height="20" viewBox="0 0 22 20" fill="none" xmlns="http://www.w3.org/2000/svg">
<path d="M19 8C20.6569 8 22 9.34315 22 11V17C22 18.6569 20.6569 20 19 20H17C15.3431 20 14 18.6569 14 17V11C14 9.34315 15.3431 8 17 8H19ZM17 10C16.4477 10 16 10.4477 16 11V17C16 17.5523 16.4477 18 17 18H19C19.5523 18 20 17.5523 20 17V11C20 10.4477 19.5523 10 19 10H17ZM15 0C15.7956 0 16.5585 0.316297 17.1211 0.878906C17.6837 1.44152 18 2.20435 18 3V5C18 5.55228 17.5523 6 17 6C16.4477 6 16 5.55228 16 5V3C16 2.73478 15.8946 2.48051 15.707 2.29297C15.5195 2.10543 15.2652 2 15 2H3C2.73478 2 2.4805 2.10543 2.29297 2.29297C2.10543 2.4805 2 2.73478 2 3V10C2 10.2652 2.10543 10.5195 2.29297 10.707C2.48051 10.8946 2.73478 11 3 11H11C11.5523 11 12 11.4477 12 12C12 12.5523 11.5523 13 11 13H10V15H11C11.5523 15 12 15.4477 12 16C12 16.5523 11.5523 17 11 17H6C5.44772 17 5 16.5523 5 16C5 15.4477 5.44772 15 6 15H8V13H3C2.20435 13 1.44152 12.6837 0.878906 12.1211C0.316297 11.5585 0 10.7956 0 10V3C0 2.20435 0.316297 1.44152 0.878906 0.878906C1.44152 0.316297 2.20435 0 3 0H15Z" fill="#344054"/>
</svg>
